<svg xmlns="http://www.w3.org/2000/svg" viewBox="0 0 500 500"><g id="freepik--background-complete--inject-7"><path d="M37.22,381.8S96,246.84,141.12,247C185.49,247.21,242,380,242,380Z" style="fill:#f0f0f0"></path><path d="M152,282.2c13.31-14.94,34.22,4.72,35.64.19-15.11-20.1-31.48-35.3-46.47-35.36s-31.79,15-47.26,35.18c2.12,4.11,7.24,8.87,18.88.21C130.16,269.45,135.44,300.72,152,282.2Z" style="fill:#f5f5f5"></path><path d="M242,380s-3.88-9.12-10.4-22.58c-6,.54-16.34,4.05-26.64,1.25-11.91-3.23-35.06-.73-42-.21s-6.63-.76-19.79.63-16.07-1.77-43.62-3.4c-22.61-1.35-45.13,3.4-52.48,5.15-6.17,12.56-9.81,20.93-9.81,20.93Z" style="fill:#e0e0e0"></path><polygon points="84.74 292.1 85.89 296.78 85.31 304.15 84.74 305.95 88.29 305.95 87.52 299.64 90.44 292.1 89.65 292.1 87.32 296.63 86.34 292.94 84.74 292.1" style="fill:#e6e6e6"></polygon><path d="M96.1,289.42a3.18,3.18,0,0,0-2.34-3.81,3.63,3.63,0,0,0-.45-.1,5.15,5.15,0,0,0-3.64-3.84c-2.67-.82-5.43.42-6.15,2.77l0,.14a4.45,4.45,0,1,0,.82,8.78,6.07,6.07,0,0,0,1.76.71,5.61,5.61,0,0,0,4.19-.66,1.46,1.46,0,0,0,.81.64c1,.32,2.25-.69,2.73-2.25a3.9,3.9,0,0,0,.12-.46A2.89,2.89,0,0,0,96.1,289.42Z" style="fill:#e6e6e6"></path><polygon points="166.38 326.75 167.54 331.43 166.96 338.8 166.38 340.61 169.94 340.61 169.17 334.29 172.09 326.75 171.3 326.75 168.97 331.28 167.99 327.59 166.38 326.75" style="fill:#e6e6e6"></polygon><path d="M177.75,324.07a3.18,3.18,0,0,0-2.34-3.81,3.63,3.63,0,0,0-.45-.1,5.15,5.15,0,0,0-3.64-3.84c-2.67-.82-5.43.42-6.15,2.77a.74.74,0,0,1,0,.14A4.45,4.45,0,1,0,166,328a5.86,5.86,0,0,0,1.76.71,5.61,5.61,0,0,0,4.19-.66,1.46,1.46,0,0,0,.81.64c1,.32,2.25-.69,2.73-2.24a4.64,4.64,0,0,0,.12-.47A2.89,2.89,0,0,0,177.75,324.07Z" style="fill:#e6e6e6"></path><polygon points="63.49 321.25 64.64 325.93 64.07 333.3 63.49 335.11 67.05 335.11 66.27 328.79 69.19 321.25 68.4 321.25 66.07 325.78 65.09 322.1 63.49 321.25" style="fill:#e6e6e6"></polygon><path d="M74.86,318.57a3.17,3.17,0,0,0-2.35-3.8,3.69,3.69,0,0,0-.45-.11,5.14,5.14,0,0,0-3.63-3.84c-2.68-.82-5.43.42-6.15,2.77a1,1,0,0,0,0,.14,4.45,4.45,0,1,0,.83,8.78,5.9,5.9,0,0,0,1.75.71,5.62,5.62,0,0,0,4.2-.66,1.54,1.54,0,0,0,.8.65c1,.31,2.26-.69,2.74-2.25a4.52,4.52,0,0,0,.11-.47A2.9,2.9,0,0,0,74.86,318.57Z" style="fill:#e6e6e6"></path><polygon points="172.54 295.74 173.5 299.64 173.02 305.78 172.54 307.28 175.51 307.28 174.86 302.02 177.29 295.74 176.63 295.74 174.69 299.51 173.88 296.44 172.54 295.74" style="fill:#e6e6e6"></polygon><path d="M182,293.51a2.83,2.83,0,0,0-2.33-3.26,4.28,4.28,0,0,0-3-3.19,4,4,0,0,0-5.13,2.3l0,.12a3.71,3.71,0,1,0,.69,7.31,5,5,0,0,0,1.47.59,4.64,4.64,0,0,0,3.49-.55,1.23,1.23,0,0,0,.67.54c.86.26,1.88-.58,2.28-1.87a2.74,2.74,0,0,0,.09-.39A2.4,2.4,0,0,0,182,293.51Z" style="fill:#e6e6e6"></path><polygon points="181.1 276.78 180.39 279.67 180.75 284.23 181.1 285.35 178.9 285.35 179.38 281.44 177.58 276.78 178.07 276.78 179.51 279.58 180.11 277.3 181.1 276.78" style="fill:#e6e6e6"></polygon><path d="M174.07,275.12a2,2,0,0,1,1.45-2.36,1.4,1.4,0,0,1,.28-.06,3.18,3.18,0,0,1,2.25-2.38,3,3,0,0,1,3.81,1.72s0,0,0,.08a2.76,2.76,0,1,1-.51,5.44,3.88,3.88,0,0,1-1.09.43,3.4,3.4,0,0,1-2.59-.41.92.92,0,0,1-.5.4c-.64.2-1.4-.42-1.7-1.39a2.46,2.46,0,0,1-.07-.29A1.79,1.79,0,0,1,174.07,275.12Z" style="fill:#e6e6e6"></path><polygon points="52.33 342.69 51.78 353.58 50.53 355.71 53.17 354.92 56.25 355.71 54.4 352.57 54.01 342.69 52.33 342.69" style="fill:#f0f0f0"></polygon><polygon points="53.22 323.28 50.08 330.11 51.65 329.54 48.96 333.71 51.09 333.33 48.17 338.74 50.08 338.27 47.39 345.38 50.3 344.15 50.87 345.38 53.22 344.25 57.15 345.38 56.37 343.87 58.95 344.82 56.03 338.27 57.71 339.41 55.58 334.33 57.04 335.23 54.46 329.35 55.8 329.82 53.22 323.28" style="fill:#ebebeb"></polygon><polygon points="77.98 298.94 77.44 309.83 76.19 311.96 78.82 311.17 81.91 311.96 80.06 308.82 79.66 298.94 77.98 298.94" style="fill:#f0f0f0"></polygon><polygon points="78.88 279.53 75.74 286.36 77.31 285.79 74.61 289.96 76.75 289.58 73.83 294.99 75.74 294.52 73.04 301.63 75.96 300.4 76.52 301.63 78.88 300.5 82.81 301.63 82.02 300.12 84.6 301.07 81.68 294.52 83.37 295.66 81.23 290.58 82.69 291.48 80.11 285.6 81.46 286.07 78.88 279.53" style="fill:#ebebeb"></polygon><polygon points="191.35 279.45 190.8 290.34 189.55 292.47 192.19 291.68 195.28 292.47 193.42 289.33 193.03 279.45 191.35 279.45" style="fill:#f0f0f0"></polygon><polygon points="192.25 260.04 189.1 266.87 190.67 266.3 187.98 270.47 190.11 270.09 187.19 275.5 189.1 275.03 186.41 282.14 189.33 280.91 189.89 282.14 192.25 281.01 196.17 282.14 195.39 280.63 197.97 281.57 195.05 275.03 196.73 276.17 194.6 271.09 196.06 271.99 193.48 266.11 194.83 266.58 192.25 260.04" style="fill:#ebebeb"></polygon><polygon points="103.83 261.25 103.07 276.35 101.34 279.3 105 278.21 109.28 279.3 106.71 274.95 106.16 261.25 103.83 261.25" style="fill:#f0f0f0"></polygon><polygon points="105.07 234.34 100.72 243.81 102.9 243.02 99.16 248.81 102.12 248.28 98.07 255.78 100.72 255.12 96.98 264.99 101.03 263.28 101.81 264.99 105.07 263.41 110.52 264.99 109.43 262.88 113.01 264.2 108.96 255.12 111.3 256.7 108.34 249.66 110.36 250.91 106.79 242.76 108.65 243.42 105.07 234.34" style="fill:#ebebeb"></polygon><polygon points="117.68 268.22 117.13 279.21 115.87 281.36 118.53 280.57 121.65 281.36 119.78 278.19 119.38 268.22 117.68 268.22" style="fill:#f0f0f0"></polygon><polygon points="118.59 248.62 115.42 255.52 117 254.94 114.28 259.15 116.44 258.77 113.49 264.23 115.42 263.75 112.7 270.94 115.64 269.69 116.21 270.94 118.59 269.79 122.55 270.94 121.76 269.4 124.36 270.36 121.42 263.75 123.12 264.9 120.97 259.78 122.44 260.69 119.83 254.75 121.19 255.23 118.59 248.62" style="fill:#ebebeb"></polygon><polygon points="95.35 271.28 94.93 279.71 93.96 281.36 96.01 280.75 98.39 281.36 96.96 278.93 96.66 271.28 95.35 271.28" style="fill:#f0f0f0"></polygon><polygon points="96.05 256.25 93.62 261.54 94.83 261.1 92.75 264.33 94.4 264.04 92.14 268.23 93.62 267.86 91.53 273.37 93.79 272.41 94.22 273.37 96.05 272.49 99.09 273.37 98.48 272.19 100.48 272.93 98.22 267.86 99.53 268.74 97.87 264.81 99 265.51 97 260.95 98.05 261.32 96.05 256.25" style="fill:#ebebeb"></polygon><rect x="416.78" y="398.49" width="33.12" height="0.25" style="fill:#ebebeb"></rect><rect x="322.53" y="401.21" width="8.69" height="0.25" style="fill:#ebebeb"></rect><rect x="396.59" y="389.21" width="19.19" height="0.25" style="fill:#ebebeb"></rect><rect x="52.46" y="390.89" width="43.19" height="0.25" style="fill:#ebebeb"></rect><rect x="104.56" y="390.89" width="6.33" height="0.25" style="fill:#ebebeb"></rect><rect x="131.47" y="395.11" width="93.68" height="0.25" style="fill:#ebebeb"></rect><path d="M237,337.8H43.92a5.71,5.71,0,0,1-5.71-5.71V60.66A5.71,5.71,0,0,1,43.92,55H237a5.71,5.71,0,0,1,5.71,5.71V332.09A5.71,5.71,0,0,1,237,337.8ZM43.92,55.2a5.47,5.47,0,0,0-5.46,5.46V332.09a5.47,5.47,0,0,0,5.46,5.46H237a5.47,5.47,0,0,0,5.46-5.46V60.66A5.47,5.47,0,0,0,237,55.2Z" style="fill:#ebebeb"></path><path d="M453.31,337.8H260.21a5.72,5.72,0,0,1-5.71-5.71V60.66A5.72,5.72,0,0,1,260.21,55h193.1A5.71,5.71,0,0,1,459,60.66V332.09A5.71,5.71,0,0,1,453.31,337.8ZM260.21,55.2a5.47,5.47,0,0,0-5.46,5.46V332.09a5.47,5.47,0,0,0,5.46,5.46h193.1a5.47,5.47,0,0,0,5.46-5.46V60.66a5.47,5.47,0,0,0-5.46-5.46Z" style="fill:#ebebeb"></path><rect y="382.4" width="500" height="0.25" style="fill:#ebebeb"></rect><path d="M285.8,188.41c-4,1.63-17.18-.33-17.18-.33l-1.43.61a28.22,28.22,0,0,1-24.36-1.11h0s-10.85.44-14.37-.27c-5.37-1.09-13.35-5.33-11.36-18.71s22.09-1.81,22.09-1.81S233.39,148,253,153.64s21.12,24.28,21.12,24.28S304.57,180.72,285.8,188.41Z" style="fill:#f5f5f5"></path><path d="M429.74,148.38c-4,1.63-17.18-.33-17.18-.33l-1.43.61a28.22,28.22,0,0,1-24.36-1.11h0s-10.85.44-14.38-.27C367,146.19,359,142,361,128.57s22.09-1.81,22.09-1.81-5.8-18.83,13.76-13.15S418,137.89,418,137.89,448.51,140.69,429.74,148.38Z" style="fill:#f5f5f5"></path><path d="M457.5,383S376.21,196.21,313.71,196.46c-61.4.26-139.6,184.08-139.6,184.08Z" style="fill:#f5f5f5"></path><path d="M298.73,245.14c-18.43-20.68-47.36,6.54-49.34.27,20.92-27.82,43.58-48.86,64.32-48.95,21-.08,44,20.84,65.4,48.7-2.92,5.68-10,12.27-26.13.28C328.88,227.5,321.58,270.78,298.73,245.14Z" style="fill:#f0f0f0"></path><path d="M174.11,380.54s5.37-12.63,14.39-31.25c8.36.74,22.62,5.6,36.87,1.73,16.48-4.48,48.52-1,58.18-.3s9.16-1.05,27.38.87,22.24-2.44,60.36-4.71c31.29-1.86,62.47,4.72,72.64,7.14,8.53,17.38,13.57,29,13.57,29Z" style="fill:#e0e0e0"></path><polygon points="391.74 258.85 390.15 265.32 390.95 275.52 391.74 278.02 386.82 278.02 387.89 269.27 383.85 258.85 384.94 258.85 388.17 265.11 389.52 260.01 391.74 258.85" style="fill:#e6e6e6"></polygon><path d="M376,255.14a4.41,4.41,0,0,1,3.24-5.28,4.75,4.75,0,0,1,.63-.14,7.12,7.12,0,0,1,5-5.31c3.7-1.14,7.51.58,8.51,3.83,0,.07,0,.13.05.2a6.16,6.16,0,0,1,2.1,12.05,6.27,6.27,0,0,1-3.24.1,8.41,8.41,0,0,1-2.43,1,7.72,7.72,0,0,1-5.81-.91,2.08,2.08,0,0,1-1.11.9c-1.43.43-3.12-1-3.79-3.12-.06-.21-.11-.43-.15-.64A4,4,0,0,1,376,255.14Z" style="fill:#e6e6e6"></path><polygon points="278.75 306.8 277.15 313.27 277.95 323.47 278.75 325.97 273.82 325.97 274.89 317.23 270.85 306.8 271.95 306.8 275.18 313.06 276.53 307.96 278.75 306.8" style="fill:#e6e6e6"></polygon><path d="M263,303.09a4.38,4.38,0,0,1,3.24-5.27,4.31,4.31,0,0,1,.62-.15,7.13,7.13,0,0,1,5-5.31c3.7-1.14,7.52.58,8.52,3.84,0,.06,0,.13.05.19a6.16,6.16,0,0,1,2.09,12.05,6.06,6.06,0,0,1-3.24.1,8,8,0,0,1-2.43,1,7.7,7.7,0,0,1-5.8-.92,2,2,0,0,1-1.12.9c-1.43.44-3.12-.95-3.78-3.11a5.13,5.13,0,0,1-.16-.65A4,4,0,0,1,263,303.09Z" style="fill:#e6e6e6"></path><polygon points="421.14 299.19 419.55 305.66 420.35 315.86 421.14 318.36 416.22 318.36 417.29 309.62 413.25 299.19 414.35 299.19 417.57 305.45 418.93 300.36 421.14 299.19" style="fill:#e6e6e6"></polygon><path d="M405.42,295.48a4.38,4.38,0,0,1,3.24-5.27c.21-.06.41-.11.62-.15a7.13,7.13,0,0,1,5-5.31c3.7-1.14,7.52.58,8.52,3.84,0,.06,0,.13.05.19A6.16,6.16,0,0,1,425,300.83a6.06,6.06,0,0,1-3.24.1,8,8,0,0,1-2.43,1,7.7,7.7,0,0,1-5.8-.92,2,2,0,0,1-1.12.9c-1.42.44-3.12-.95-3.78-3.11a5.13,5.13,0,0,1-.16-.65A4,4,0,0,1,405.42,295.48Z" style="fill:#e6e6e6"></path><polygon points="270.22 263.88 268.89 269.28 269.56 277.77 270.22 279.85 266.12 279.85 267.01 272.57 263.65 263.88 264.56 263.88 267.25 269.1 268.37 264.86 270.22 263.88" style="fill:#e6e6e6"></polygon><path d="M257.12,260.8a3.66,3.66,0,0,1,2.7-4.39,4.94,4.94,0,0,1,.52-.13,5.92,5.92,0,0,1,4.19-4.42c3.08-1,6.26.48,7.09,3.2a.75.75,0,0,1,0,.16,5.13,5.13,0,1,1-1,10.12,7,7,0,0,1-2,.81,6.43,6.43,0,0,1-4.83-.76,1.65,1.65,0,0,1-.93.74c-1.19.37-2.6-.79-3.15-2.59a3.53,3.53,0,0,1-.13-.54A3.31,3.31,0,0,1,257.12,260.8Z" style="fill:#e6e6e6"></path><polygon points="258.37 237.64 259.36 241.64 258.87 247.95 258.37 249.5 261.42 249.5 260.76 244.09 263.26 237.64 262.58 237.64 260.58 241.51 259.75 238.36 258.37 237.64" style="fill:#e6e6e6"></polygon><path d="M268.11,235.34a2.9,2.9,0,0,0-2.4-3.35,4.41,4.41,0,0,0-3.11-3.29,4.11,4.11,0,0,0-5.27,2.38l0,.12a3.81,3.81,0,1,0,.71,7.52,5.48,5.48,0,0,0,1.51.6,4.8,4.8,0,0,0,3.59-.57,1.26,1.26,0,0,0,.69.56c.88.27,1.93-.59,2.34-1.93,0-.13.07-.27.1-.4A2.47,2.47,0,0,0,268.11,235.34Z" style="fill:#e6e6e6"></path><polygon points="436.6 328.86 437.35 343.92 439.08 346.87 435.43 345.79 431.16 346.87 433.72 342.52 434.27 328.86 436.6 328.86" style="fill:#f0f0f0"></polygon><polygon points="435.36 301.99 439.7 311.44 437.53 310.66 441.26 316.43 438.31 315.91 442.34 323.39 439.7 322.74 443.43 332.58 439.39 330.88 438.62 332.58 435.36 331.01 429.92 332.58 431.01 330.48 427.43 331.8 431.47 322.74 429.14 324.31 432.09 317.29 430.07 318.54 433.65 310.39 431.78 311.05 435.36 301.99" style="fill:#ebebeb"></polygon><polygon points="401.09 268.31 401.85 283.38 403.58 286.33 399.93 285.24 395.65 286.33 398.22 281.98 398.76 268.31 401.09 268.31" style="fill:#f0f0f0"></polygon><polygon points="399.85 241.44 404.2 250.9 402.02 250.11 405.75 255.89 402.8 255.36 406.84 262.85 404.2 262.19 407.93 272.04 403.89 270.33 403.11 272.04 399.85 270.46 394.41 272.04 395.5 269.94 391.93 271.25 395.97 262.19 393.64 263.77 396.59 256.74 394.57 257.99 398.14 249.85 396.28 250.5 399.85 241.44" style="fill:#ebebeb"></polygon><polygon points="244.2 241.34 244.95 256.4 246.68 259.35 243.03 258.26 238.76 259.35 241.32 255 241.87 241.34 244.2 241.34" style="fill:#f0f0f0"></polygon><polygon points="242.96 214.47 247.3 223.92 245.13 223.13 248.86 228.91 245.91 228.39 249.94 235.87 247.3 235.22 251.03 245.06 246.99 243.36 246.22 245.06 242.96 243.49 237.52 245.06 238.61 242.96 235.03 244.28 239.07 235.22 236.74 236.79 239.69 229.77 237.68 231.01 241.25 222.87 239.38 223.53 242.96 214.47" style="fill:#ebebeb"></polygon><polygon points="365.32 216.16 366.36 237.04 368.76 241.13 363.7 239.62 357.78 241.13 361.33 235.1 362.09 216.16 365.32 216.16" style="fill:#f0f0f0"></polygon><polygon points="363.6 178.91 369.62 192.01 366.61 190.92 371.78 198.93 367.69 198.2 373.28 208.58 369.62 207.67 374.79 221.32 369.19 218.96 368.12 221.32 363.6 219.14 356.06 221.32 357.57 218.41 352.61 220.23 358.21 207.67 354.98 209.85 359.07 200.11 356.27 201.84 361.23 190.56 358.64 191.47 363.6 178.91" style="fill:#ebebeb"></polygon><polygon points="346.15 225.79 346.91 241 348.66 243.98 344.97 242.88 340.66 243.98 343.25 239.59 343.8 225.79 346.15 225.79" style="fill:#f0f0f0"></polygon><polygon points="344.89 198.67 349.28 208.21 347.09 207.42 350.85 213.25 347.87 212.72 351.95 220.27 349.28 219.61 353.05 229.55 348.97 227.83 348.19 229.55 344.89 227.96 339.41 229.55 340.5 227.43 336.9 228.76 340.97 219.61 338.62 221.2 341.6 214.11 339.56 215.37 343.17 207.15 341.29 207.81 344.89 198.67" style="fill:#ebebeb"></polygon><polygon points="377.05 230.03 377.63 241.7 378.97 243.98 376.15 243.14 372.84 243.98 374.82 240.62 375.24 230.03 377.05 230.03" style="fill:#f0f0f0"></polygon><polygon points="376.09 209.23 379.45 216.55 377.77 215.94 380.65 220.41 378.37 220.01 381.5 225.8 379.45 225.29 382.34 232.92 379.21 231.6 378.61 232.92 376.09 231.7 371.88 232.92 372.72 231.29 369.95 232.31 373.08 225.29 371.28 226.51 373.56 221.08 372 222.04 374.76 215.74 373.32 216.25 376.09 209.23" style="fill:#ebebeb"></polygon><path d="M159.59,161.81c-4.75,1.94-20.54-.4-20.54-.4l-1.71.73a33.74,33.74,0,0,1-29.12-1.32h0s-13,.52-17.19-.33c-6.41-1.29-16-6.36-13.57-22.36s26.4-2.17,26.4-2.17-6.92-22.52,16.46-15.72,25.25,29,25.25,29S182,152.62,159.59,161.81Z" style="fill:#f5f5f5"></path><path d="M210.35,143.62c-2.84,1.16-12.27-.24-12.27-.24l-1,.43a20.16,20.16,0,0,1-17.4-.78h0s-7.74.31-10.26-.2c-3.83-.77-9.53-3.8-8.11-13.36s15.77-1.29,15.77-1.29-4.13-13.45,9.83-9.39A20.78,20.78,0,0,1,202,136.13S223.75,138.13,210.35,143.62Z" style="fill:#f5f5f5"></path><path d="M335.94,127.27c-2,.82-8.57-.16-8.57-.16l-.72.3a14,14,0,0,1-12.15-.55h0a50.92,50.92,0,0,1-7.17-.14c-2.67-.54-6.66-2.65-5.66-9.33s11-.9,11-.9-2.89-9.4,6.87-6.56A14.5,14.5,0,0,1,330.08,122S345.3,123.44,335.94,127.27Z" style="fill:#f5f5f5"></path></g><g id="freepik--Shadow--inject-7"><ellipse id="freepik--path--inject-7" cx="245.18" cy="412.39" rx="193.89" ry="11.32" style="fill:#f5f5f5"></ellipse></g><g id="freepik--Land--inject-7"><polygon points="83 254.91 86.22 245.79 72.49 253.11 83.77 214.17 75.22 221.85 83.23 191.76 75.76 197.94 85.66 162.98 78.48 166.68 87.87 128 110.77 163.84 101.53 161.87 119.85 183.17 107.61 182.7 128.15 210.74 117.09 209.56 137.7 247.34 120.39 242.69 118.2 250.04 110.21 247.45 119.43 293.76 128.09 307.62 114.4 305.52 110.77 309.05 109.59 306.53 96.02 312.06 103.96 293.98 99.49 247.55 83 254.91" style="fill:#216045"></polygon><polygon points="83 254.91 86.22 245.79 72.49 253.11 83.77 214.17 75.22 221.85 83.23 191.76 75.76 197.94 85.66 162.98 78.48 166.68 87.87 128 110.77 163.84 101.53 161.87 119.85 183.17 107.61 182.7 128.15 210.74 117.09 209.56 137.7 247.34 120.39 242.69 118.2 250.04 110.21 247.45 119.43 293.76 128.09 307.62 114.4 305.52 110.77 309.05 109.59 306.53 96.02 312.06 103.96 293.98 99.49 247.55 83 254.91" style="opacity:0.1"></polygon><polygon points="89.26 224.17 87.18 218.23 81.7 221.31 83.77 214.17 89.26 211.89 92.15 217.43 96.81 208.76 108.68 213.74 106.43 206.35 117.09 209.56 120.2 215.26 114.3 215.26 114.3 220.03 97.61 213.58 89.26 224.17" style="opacity:0.1"></polygon><polygon points="94.56 186.94 89.26 194.16 87.98 190.47 81.74 197.35 83.23 191.76 87.98 185.82 90.07 187.9 93.6 182.53 100.95 184.85 99.53 180.2 107.61 182.7 110.52 186.66 104.35 185.34 105.09 189.83 94.56 186.94" style="opacity:0.1"></polygon><polygon points="96.13 166.56 92.03 162.39 89.26 167.52 87.18 164.8 84.74 166.22 85.66 162.98 87.5 161.1 89.26 163.03 92.15 157.25 94.88 161.87 96.13 158.86 101.53 161.87 104.96 165.86 97.61 162.39 96.13 166.56" style="opacity:0.1"></polygon><polygon points="99.49 247.55 103.41 244.33 105.09 259.47 106.91 254.65 109.16 282.25 110.77 279.37 113.01 298.3 115.42 295.57 119.75 302.63 125.97 304.22 128.09 307.62 114.4 305.52 110.77 309.05 111.89 302.15 110.44 299.58 109.59 306.53 99.83 310.5 105.95 298.14 103.96 293.98 99.49 247.55" style="opacity:0.1"></polygon><path d="M168.54,294.3c-3.47-1.18-9.2-5.25-8.49-12s6.09,3.29,7.41.74-7.58-5.38-3.9-10.91,6.47,4.71,8.26,2.47-7.43-7.8-.94-13.53,4.21,4.73,7.27,3.91-1.61-5.47,2.92-9.25,8.62-.63,6,3.47,7-.42,7.33,3.42-9.78,5.57-10.4,7.32,9.25-1.91,9.17.53-2.2,8.3-5.25,8.64-8.28-1.58-9-.19,10.41,1.11,9.72,2.86-3.43,6.59-5.47,6.38-7.49-2.61-7.76-1.3,9.67,1.85,8.33,3.3S179.51,298,168.54,294.3Z" style="fill:#216045"></path><path d="M168.54,294.3c-3.47-1.18-9.2-5.25-8.49-12s6.09,3.29,7.41.74-7.58-5.38-3.9-10.91,6.47,4.71,8.26,2.47-7.43-7.8-.94-13.53,4.21,4.73,7.27,3.91-1.61-5.47,2.92-9.25,8.62-.63,6,3.47,7-.42,7.33,3.42-9.78,5.57-10.4,7.32,9.25-1.91,9.17.53-2.2,8.3-5.25,8.64-8.28-1.58-9-.19,10.41,1.11,9.72,2.86-3.43,6.59-5.47,6.38-7.49-2.61-7.76-1.3,9.67,1.85,8.33,3.3S179.51,298,168.54,294.3Z" style="fill:#fff;opacity:0.7000000000000001"></path><path d="M176.43,295.91c-1.66-2.4-3.39-7.7.25-11.66s2.33,5,4.38,4-2.28-7,2.68-8.81,1.9,6.08,4.1,5.5-1-8.51,5.82-9.08.45,5,2.78,5.94,1.57-4.26,6.25-4.52,5.8,3.69,2.18,5.06,4.66,3,3.06,5.65-8.89-1.08-10.11-.26,6.81,3.17,5.6,4.69-5.33,4.25-7.45,3-4.53-4.93-5.64-4.37,6.11,5.63,4.85,6.42-5.32,2.58-6.52,1.48-3.55-5.21-4.34-4.5,5.3,5.76,3.76,6.05S181.66,303.49,176.43,295.91Z" style="fill:#216045"></path><path d="M176.43,295.91c-1.66-2.4-3.39-7.7.25-11.66s2.33,5,4.38,4-2.28-7,2.68-8.81,1.9,6.08,4.1,5.5-1-8.51,5.82-9.08.45,5,2.78,5.94,1.57-4.26,6.25-4.52,5.8,3.69,2.18,5.06,4.66,3,3.06,5.65-8.89-1.08-10.11-.26,6.81,3.17,5.6,4.69-5.33,4.25-7.45,3-4.53-4.93-5.64-4.37,6.11,5.63,4.85,6.42-5.32,2.58-6.52,1.48-3.55-5.21-4.34-4.5,5.3,5.76,3.76,6.05S181.66,303.49,176.43,295.91Z" style="fill:#fff;opacity:0.4"></path><path d="M127,296.12c0,.06.36.07-.24.65-1.48,1.43-4.3,3.73-6.56,3.23-3.23-.71.31-3.51-1-4.32S115.05,299,113,298s.81-3,0-3.68-2.67,2.79-5,1.93.81-2.11-.19-2.46-6.6-.53-5.93-2.27,6.21-1.27,7.44-1.78-1.15-3.67,1-3.78,5.23,5.07,7.17,4.34c1.45-.55-.55-1.63.84-2.75C120.06,286,126.17,291.77,127,296.12Z" style="fill:#216045"></path><g style="opacity:0.5"><path d="M127,296.12c0,.06.36.07-.24.65-1.48,1.43-4.3,3.73-6.56,3.23-3.23-.71.31-3.51-1-4.32S115.05,299,113,298s.81-3,0-3.68-2.67,2.79-5,1.93.81-2.11-.19-2.46-6.6-.53-5.93-2.27,6.21-1.27,7.44-1.78-1.15-3.67,1-3.78,5.23,5.07,7.17,4.34c1.45-.55-.55-1.63.84-2.75C120.06,286,126.17,291.77,127,296.12Z" style="fill:#fff"></path></g><path d="M133,300.55h0a.13.13,0,0,0,0-.19c-10.37-9.28-20-8.25-20.15-8.24a.13.13,0,0,0-.11.15.13.13,0,0,0,.15.12c.09,0,9.66-1,19.94,8.17A.14.14,0,0,0,133,300.55Z" style="fill:#216045"></path><path d="M115.48,292.37a.14.14,0,0,0,0-.15.13.13,0,0,0-.17-.07,6.57,6.57,0,0,0-2.38,2.11.14.14,0,0,0,0,.19.13.13,0,0,0,.19,0,6.33,6.33,0,0,1,2.26-2Z" style="fill:#216045"></path><path d="M117.69,292.66a.13.13,0,0,0,0-.18,13.6,13.6,0,0,0-6.73-4,.14.14,0,0,0-.16.1.13.13,0,0,0,.1.16,13.34,13.34,0,0,1,6.59,3.95.14.14,0,0,0,.19,0Z" style="fill:#216045"></path><path d="M121.8,293.76a.13.13,0,0,0,0-.1.12.12,0,0,0-.13-.13,4.23,4.23,0,0,0-3.66,2.11.12.12,0,0,0,0,.18.12.12,0,0,0,.18-.05,4,4,0,0,1,3.42-2A.15.15,0,0,0,121.8,293.76Z" style="fill:#216045"></path><path d="M124.36,294.79a.13.13,0,0,0,0-.14,10,10,0,0,0-3.09-4.18.14.14,0,1,0-.17.21,10.08,10.08,0,0,1,3,4.06.13.13,0,0,0,.17.08S124.34,294.81,124.36,294.79Z" style="fill:#216045"></path><path d="M80.27,295.57c.58,2.33,5.91,3,11.92,1.57s10.42-4.56,9.85-6.89S94.49,280.5,88.48,282,79.7,293.23,80.27,295.57Z" style="fill:#216045"></path><path d="M102.06,290.9c-.27,2.23-4.4,4.9-9.87,6.24s-10.37.87-11.64-1c.27-2.23,4.4-4.9,9.87-6.24S100.79,289,102.06,290.9Z" style="fill:#fff;opacity:0.8"></path><path d="M93.54,293a5.05,5.05,0,0,0-4.84,1.18,42,42,0,0,0,2.59,7.48,9.91,9.91,0,0,1,.7,6.62l9.25-2.27a40.29,40.29,0,0,1-4.77-5.62A46.62,46.62,0,0,1,93.54,293Z" style="fill:#216045"></path><path d="M93.54,293a5.05,5.05,0,0,0-4.84,1.18,42,42,0,0,0,2.59,7.48,9.91,9.91,0,0,1,.7,6.62l9.25-2.27a40.29,40.29,0,0,1-4.77-5.62A46.62,46.62,0,0,1,93.54,293Z" style="fill:#fff;opacity:0.6000000000000001"></path><path d="M105.19,292.42s2.82,8.2-1,12.86l7-1.71a24.49,24.49,0,0,0-2-12.12Z" style="fill:#216045"></path><path d="M105.19,292.42s2.82,8.2-1,12.86l7-1.71a24.49,24.49,0,0,0-2-12.12Z" style="fill:#fff;opacity:0.6000000000000001"></path><path d="M99.23,294c.43,1.76,4.45,2.29,9,1.18s7.85-3.44,7.42-5.2-5.69-7.35-10.22-6.24S98.8,292.21,99.23,294Z" style="fill:#216045"></path><path d="M99.23,294c.43,1.76,4.45,2.29,9,1.18s7.85-3.44,7.42-5.2-5.69-7.35-10.22-6.24S98.8,292.21,99.23,294Z" style="fill:#fff;opacity:0.1"></path><path d="M196.25,290.82c-.39,1.62-4.08,2.1-8.24,1.08s-7.21-3.15-6.81-4.76,5.22-6.74,9.37-5.73S196.65,289.2,196.25,290.82Z" style="fill:#216045"></path><path d="M181.18,287.59c.19,1.54,3,3.39,6.83,4.31s7.17.61,8.05-.68c-.19-1.54-3.05-3.39-6.83-4.31S182.06,286.31,181.18,287.59Z" style="fill:#fff;opacity:0.8"></path><path d="M187.08,289a3.49,3.49,0,0,1,3.34.82,28.82,28.82,0,0,1-1.79,5.17,6.79,6.79,0,0,0-.48,4.57l-6.4-1.56a27.66,27.66,0,0,0,3.3-3.89A31.89,31.89,0,0,0,187.08,289Z" style="fill:#216045"></path><path d="M187.08,289a3.49,3.49,0,0,1,3.34.82,28.82,28.82,0,0,1-1.79,5.17,6.79,6.79,0,0,0-.48,4.57l-6.4-1.56a27.66,27.66,0,0,0,3.3-3.89A31.89,31.89,0,0,0,187.08,289Z" style="fill:#fff;opacity:0.6000000000000001"></path><path d="M179,288.64s-1.94,5.67.73,8.9l-4.85-1.19a16.92,16.92,0,0,1,1.37-8.38Z" style="fill:#216045"></path><path d="M179,288.64s-1.94,5.67.73,8.9l-4.85-1.19a16.92,16.92,0,0,1,1.37-8.38Z" style="fill:#fff;opacity:0.7000000000000001"></path><path d="M183.14,289.72c-.3,1.22-3.08,1.58-6.22.82s-5.43-2.38-5.13-3.6,3.93-5.08,7.07-4.31S183.44,288.5,183.14,289.72Z" style="fill:#216045"></path><path d="M183.14,289.72c-.3,1.22-3.08,1.58-6.22.82s-5.43-2.38-5.13-3.6,3.93-5.08,7.07-4.31S183.44,288.5,183.14,289.72Z" style="opacity:0.2"></path><path d="M131.7,294s.2.3-.63.28c-2.06-.06-5.68-.44-6.92-2.4-1.77-2.8,2.71-2.25,2.37-3.75s-5.24-.63-6-2.79,2.68-1.52,2.59-2.61-3.87.06-4.93-2.25,2.07-.9,1.61-1.85-4.28-5.08-2.57-5.82,5.28,3.52,6.52,4,1.79-3.4,3.36-2,.09,7.29,2,8.16c1.4.64.76-1.54,2.54-1.34C134,282,134.23,290.36,131.7,294Z" style="fill:#216045"></path><g style="opacity:0.30000000000000004"><path d="M131.7,294s.2.3-.63.28c-2.06-.06-5.68-.44-6.92-2.4-1.77-2.8,2.71-2.25,2.37-3.75s-5.24-.63-6-2.79,2.68-1.52,2.59-2.61-3.87.06-4.93-2.25,2.07-.9,1.61-1.85-4.28-5.08-2.57-5.82,5.28,3.52,6.52,4,1.79-3.4,3.36-2,.09,7.29,2,8.16c1.4.64.76-1.54,2.54-1.34C134,282,134.23,290.36,131.7,294Z" style="fill:#fff"></path></g><path d="M132.8,301.41h0a.12.12,0,0,0,.12-.14c-.72-13.91-8.27-20.07-8.35-20.13a.13.13,0,0,0-.19,0,.15.15,0,0,0,0,.19c.08.06,7.54,6.15,8.25,19.94A.16.16,0,0,0,132.8,301.41Z" style="fill:#216045"></path><path d="M126.26,283.17a.13.13,0,0,0,.13-.08.14.14,0,0,0-.07-.18,6.69,6.69,0,0,0-3.17-.2.14.14,0,0,0,0,.27,6.52,6.52,0,0,1,3,.18Z" style="fill:#216045"></path><path d="M127.62,285a.12.12,0,0,0,.13-.12,13.65,13.65,0,0,0-1.87-7.64.14.14,0,0,0-.19,0,.13.13,0,0,0,0,.18,13.37,13.37,0,0,1,1.84,7.47.13.13,0,0,0,.12.14Z" style="fill:#216045"></path><path d="M129.74,288.65a.12.12,0,0,0,.09,0,.14.14,0,0,0,0-.19,4.3,4.3,0,0,0-4.09-1.12.14.14,0,0,0-.09.17.13.13,0,0,0,.16.09,4,4,0,0,1,3.82,1A.14.14,0,0,0,129.74,288.65Z" style="fill:#216045"></path><path d="M130.8,291.2a.13.13,0,0,0,.12-.08,10,10,0,0,0,.8-5.14.14.14,0,0,0-.15-.12.13.13,0,0,0-.12.14,10,10,0,0,1-.76,5,.13.13,0,0,0,.05.18Z" style="fill:#216045"></path><path d="M141.86,291c-.05.06.2.47-.93.21-2.76-.65-7.53-2.18-8.65-5.16-1.6-4.26,4.27-2.28,4.24-4.39s-6.9-2.31-7.37-5.44,4-1.3,4.22-2.8-5.23-1-6-4.4,3.05-.63,2.69-2.05-4.35-8-1.84-8.56,6.13,6.22,7.65,7.26,3.37-4.08,5.09-1.72-1.92,9.85.39,11.54c1.71,1.27,1.45-1.85,3.79-1.08C148.3,275.4,146.28,286.75,141.86,291Z" style="fill:#216045"></path><g style="opacity:0.5"><path d="M141.86,291c-.05.06.2.47-.93.21-2.76-.65-7.53-2.18-8.65-5.16-1.6-4.26,4.27-2.28,4.24-4.39s-6.9-2.31-7.37-5.44,4-1.3,4.22-2.8-5.23-1-6-4.4,3.05-.63,2.69-2.05-4.35-8-1.84-8.56,6.13,6.22,7.65,7.26,3.37-4.08,5.09-1.72-1.92,9.85.39,11.54c1.71,1.27,1.45-1.85,3.79-1.08C148.3,275.4,146.28,286.75,141.86,291Z" style="fill:#fff"></path></g><path d="M141.29,301.25h0a.19.19,0,0,0,.21-.16c2.91-18.94-5.56-29.35-5.64-29.45a.19.19,0,0,0-.29.23c.09.1,8.44,10.39,5.57,29.17A.19.19,0,0,0,141.29,301.25Z" style="fill:#216045"></path><path d="M137.55,274.86a.21.21,0,0,0,.2-.08.19.19,0,0,0-.05-.26,9.15,9.15,0,0,0-4.22-1.15.19.19,0,0,0-.2.17.2.2,0,0,0,.18.2,8.84,8.84,0,0,1,4,1.09Z" style="fill:#216045"></path><path d="M138.88,277.63a.18.18,0,0,0,.22-.13,18.78,18.78,0,0,0-.4-10.81.19.19,0,0,0-.35.14,18.34,18.34,0,0,1,.4,10.57.18.18,0,0,0,.12.23Z" style="fill:#216045"></path><path d="M140.71,283.2a.2.2,0,0,0,.13,0,.18.18,0,0,0,.07-.25,5.89,5.89,0,0,0-5.2-2.65.17.17,0,0,0-.17.19.18.18,0,0,0,.2.17,5.51,5.51,0,0,1,4.85,2.47A.18.18,0,0,0,140.71,283.2Z" style="fill:#216045"></path><path d="M141.43,286.93a.2.2,0,0,0,.19-.06,13.93,13.93,0,0,0,2.5-6.71A.19.19,0,0,0,144,280a.19.19,0,0,0-.21.17,13.81,13.81,0,0,1-2.42,6.52.19.19,0,0,0,0,.26Z" style="fill:#216045"></path><polygon points="170.35 291.04 169.88 285.52 167.15 232.43 168.3 222.15 180.97 214.54 199.22 195.69 194.71 195.27 180.07 209.74 169.18 214.25 171.99 189.23 163.22 189.22 153.01 226.4 143.27 217.61 134.82 195.69 130.39 195.69 137.58 220.13 151.38 235.31 147.74 281.02 147.09 284.79 137.28 292.27 133.35 301.47 136.53 301.47 141.33 295.34 145.54 293.73 144.19 301.47 171.53 305.05 170.83 296.74 172.47 298 179.38 301.27 184.69 301.27 175.16 294.11 170.35 291.04" style="fill:#216045"></polygon><polygon points="170.35 291.04 169.88 285.52 167.15 232.43 168.3 222.15 180.97 214.54 199.22 195.69 194.71 195.27 180.07 209.74 169.18 214.25 171.99 189.23 163.22 189.22 153.01 226.4 143.27 217.61 134.82 195.69 130.39 195.69 137.58 220.13 151.38 235.31 147.74 281.02 147.09 284.79 137.28 292.27 133.35 301.47 136.53 301.47 141.33 295.34 145.54 293.73 144.19 301.47 171.53 305.05 170.83 296.74 172.47 298 179.38 301.27 184.69 301.27 175.16 294.11 170.35 291.04" style="fill:#fff;opacity:0.30000000000000004"></polygon><polygon points="164.17 275.29 160.76 278.67 162.47 245.84 158.44 245.84 161.31 226.81 161.31 220.99 176.19 214.4 181.32 211.63 196.99 195.48 194.71 195.27 180.07 209.74 169.18 214.25 163.37 214.4 167.05 197.29 168.89 200.62 171.05 197.58 171.99 189.23 163.22 189.22 153.01 226.4 143.27 217.61 134.82 195.69 130.39 195.69 137.58 220.13 151.38 235.31 147.74 281.02 147.09 284.79 137.28 292.27 133.35 301.47 134.57 301.47 138.67 293.39 146.96 287.72 145.54 293.73 144.19 301.47 163.6 301.56 164.17 275.29" style="fill:#216045"></polygon><path d="M208.65,139c-15.77-9.11-33.67-9.11-45-1.19-5-10.24-18.08-19.16-31.32-16.19-14.29,3.2-19.51,8.91-20.49,15.72-.3.07-.6.12-.9.21-9.75,2.76-15.64,12.28-13.6,21.59-7.71,3-12.72,7.87-12.72,15.25,0,14.69,19.89,33.78,41.43,33.78,11.51,0,21.86-3.4,29-8.82a37.3,37.3,0,0,0,5.19.38,53.86,53.86,0,0,0,18.11-3c19.6,10.12,41.81,6.58,50.47-8.42C237.8,172.64,228.78,150.58,208.65,139Z" style="fill:#216045"></path><path d="M92.84,192.42c-12-17.83,15.21-23.49,15.21-23.49-4.09-11.46,16.37-9.77,16.37-9.77s-3.68-9.46,12.27-11.54,24.14,27.85,27,18.76S212.37,158.7,221,176.7c5.38,11.27-2.07,19.46-8.4,24-10.08,3.14-22.61,1.93-34.23-4.06a53.86,53.86,0,0,1-18.11,3,37.3,37.3,0,0,1-5.19-.38c-7.14,5.42-17.49,8.82-29,8.82C113,208.13,100.62,201.17,92.84,192.42Z" style="opacity:0.2"></path><path d="M150.7,191.81c0-4.25-3.92-7.69-8.74-7.69a11.89,11.89,0,0,0-1.21.08,13.39,13.39,0,0,0-12-6.77c-7.29,0-13.19,5.2-13.19,11.61,0,.12,0,.25,0,.37a11.6,11.6,0,1,0,8.77,21.22,15.32,15.32,0,0,0,4.91.41,14.49,14.49,0,0,0,9.93-4.85,3.85,3.85,0,0,0,2.5,1c2.81,0,5.09-3.45,5.09-7.69,0-.43,0-.85-.07-1.25A7.51,7.51,0,0,0,150.7,191.81Z" style="fill:#216045"></path><path d="M110,205.45c.82-7.16,11.87-6.34,11.87-6.34s-2.25-6.14,4.7-9.41c7.49-3.52,13.91,3.07,13.91,3.07s4.91-4.5,7.16-2.46c1.34,1.22,1.37,4.1,1.18,6.23a8.5,8.5,0,0,1-2.09,1.71c0,.4.07.82.07,1.25,0,4.24-2.28,7.69-5.09,7.69a3.85,3.85,0,0,1-2.5-1,14.49,14.49,0,0,1-9.93,4.85,15.32,15.32,0,0,1-4.91-.41,11.57,11.57,0,0,1-13.46-1.21A5.48,5.48,0,0,1,110,205.45Z" style="opacity:0.2"></path><path d="M174.8,192.34c0-3.51,3.24-6.35,7.22-6.35a8.26,8.26,0,0,1,1,.07,11.05,11.05,0,0,1,9.9-5.6c6,0,10.89,4.29,10.89,9.59,0,.1,0,.2,0,.31a9.57,9.57,0,1,1-7.24,17.52,12.67,12.67,0,0,1-4.06.34,11.93,11.93,0,0,1-8.2-4,3.2,3.2,0,0,1-2.07.83c-2.32,0-4.2-2.85-4.2-6.35,0-.36,0-.7.06-1A6.19,6.19,0,0,1,174.8,192.34Z" style="fill:#216045"></path><path d="M208.41,203.6c-.67-5.91-9.8-5.24-9.8-5.24s1.86-5.06-3.88-7.77c-6.18-2.91-11.49,2.54-11.49,2.54s-4.05-3.72-5.91-2c-1.11,1-1.14,3.38-1,5.15a7.18,7.18,0,0,0,1.73,1.4c0,.34-.06.68-.06,1,0,3.5,1.88,6.35,4.2,6.35a3.2,3.2,0,0,0,2.07-.83,11.93,11.93,0,0,0,8.2,4,12.67,12.67,0,0,0,4.06-.34,9.55,9.55,0,0,0,11.11-1A4.5,4.5,0,0,0,208.41,203.6Z" style="opacity:0.2"></path><path d="M273.48,314.82s7.25,27.89,54.11,97.06c0,0-87.74,13.39-260.87,0,0,0,11.23-70.57,11.23-93.72L100.87,307l66.06-1.69,64.43-1.95,26.5,4.46L269.4,310Z" style="fill:#216045"></path><path d="M273.48,314.82s7.25,27.89,54.11,97.06c0,0-87.74,13.39-260.87,0,0,0,11.23-70.57,11.23-93.72L100.87,307l66.06-1.69,64.43-1.95,26.5,4.46L269.4,310Z" style="fill:#fff;opacity:0.8"></path><g style="opacity:0.1"><path d="M285,415.77c-8.16.5-17.48,1-28,1.31l-.33-8.67-4.44-31.67-6.13-9.49-7.81-39.6,11.15,27.61,12,8.09Z"></path><path d="M307.54,414.1l-10.41-34.57,5.17-7.08c6.78,11.28,15.1,24.38,25.29,39.43C327.59,411.88,320.88,412.9,307.54,414.1Z"></path><path d="M167.06,401.28l2.1-24.26,14.47-49.37,7.29,44.63,9.68,45.51q-19.41-.14-41.78-.82Z"></path><path d="M83,413.08l5.27-12.35L97,371.16V333.23l8.86-5.58,3.07,33,6,28.52,2.23,26.06Q100.71,414.31,83,413.08Z"></path><path d="M77.32,377l-7.54,35.09-3.07-.23s3.55-22.27,6.66-45.89Z"></path></g><polygon points="261.68 327.65 269.4 357.14 261.68 348.85 257.41 338.98 261.68 327.65" style="opacity:0.1"></polygon><polygon points="202.56 341.52 208.13 344.82 200.13 349.33 197.71 345.43 202.56 341.52" style="opacity:0.1"></polygon><polygon points="203.06 361.34 199.84 362.06 197.58 358.27 200.9 357.07 203.06 361.34" style="opacity:0.1"></polygon><polygon points="196.62 351.79 194.34 352.3 192.74 349.61 195.09 348.76 196.62 351.79" style="opacity:0.1"></polygon><polygon points="118.91 365.99 113.34 362.69 121.34 358.17 123.77 362.08 118.91 365.99" style="opacity:0.1"></polygon><polygon points="118.42 346.16 121.64 345.43 123.9 349.23 120.57 350.42 118.42 346.16" style="opacity:0.1"></polygon><polygon points="286.7 385.9 284.47 380.36 289.12 375.85 291.55 381.99 286.7 385.9" style="opacity:0.1"></polygon><polygon points="290.18 368.1 293.4 367.37 295.66 371.17 292.34 372.37 290.18 368.1" style="opacity:0.1"></polygon><polygon points="288.81 359.72 290.42 359.36 291.55 361.26 289.89 361.86 288.81 359.72" style="opacity:0.1"></polygon><polygon points="124.86 355.72 127.14 355.2 128.75 357.9 126.39 358.75 124.86 355.72" style="opacity:0.1"></polygon><polygon points="169.23 303.38 173.54 322.63 188.17 325.42 195.2 337.69 192.74 338.81 186.46 328.76 179.71 328.54 173.54 327.65 176.56 335.18 182.21 345.43 183.67 350.53 181.25 352.3 179.71 346.99 176.13 340.48 172.7 350.42 171.02 353.87 169.23 352.3 170.84 348.76 172.88 337.88 169.23 328.26 163.11 335.27 160.79 355.2 163.41 362.06 160.79 363.16 158.01 356.97 158.01 347.93 147.78 355.2 141.2 359.36 140.16 357.07 145.55 352.3 153.54 344.57 154.84 333.27 156.68 322.63 145.36 333.27 146.1 345.43 144.57 346.99 143.13 334.71 133.83 337.88 128.75 342.4 126.8 340.48 131.82 336.01 139.97 331.74 144.57 322.44 131.82 328.26 119.7 331.55 116.17 335.08 113.34 334.16 117.66 330.06 131.04 324.86 142.94 316.91 144.57 302.17 169.23 303.38" style="fill:#216045"></polygon><polygon points="169.23 303.38 173.54 322.63 188.17 325.42 195.2 337.69 192.74 338.81 186.46 328.76 179.71 328.54 173.54 327.65 176.56 335.18 182.21 345.43 183.67 350.53 181.25 352.3 179.71 346.99 176.13 340.48 172.7 350.42 171.02 353.87 169.23 352.3 170.84 348.76 172.88 337.88 169.23 328.26 163.11 335.27 160.79 355.2 163.41 362.06 160.79 363.16 158.01 356.97 158.01 347.93 147.78 355.2 141.2 359.36 140.16 357.07 145.55 352.3 153.54 344.57 154.84 333.27 156.68 322.63 145.36 333.27 146.1 345.43 144.57 346.99 143.13 334.71 133.83 337.88 128.75 342.4 126.8 340.48 131.82 336.01 139.97 331.74 144.57 322.44 131.82 328.26 119.7 331.55 116.17 335.08 113.34 334.16 117.66 330.06 131.04 324.86 142.94 316.91 144.57 302.17 169.23 303.38" style="fill:#fff;opacity:0.6000000000000001"></polygon><polygon points="169.23 303.38 173.54 322.63 188.17 325.42 195.2 337.69 192.74 338.81 186.46 328.76 179.71 328.54 173.54 327.65 176.56 335.18 182.21 345.43 183.67 350.53 181.25 352.3 179.71 346.99 176.13 340.48 172.7 350.42 171.02 353.87 169.23 352.3 170.84 348.76 172.88 337.88 169.23 328.26 163.11 335.27 160.79 355.2 163.41 362.06 160.79 363.16 158.01 356.97 158.01 347.93 147.78 355.2 141.2 359.36 140.16 357.07 145.55 352.3 153.54 344.57 154.84 333.27 156.68 322.63 145.36 333.27 146.1 345.43 144.57 346.99 143.13 334.71 133.83 337.88 128.75 342.4 126.8 340.48 131.82 336.01 139.97 331.74 144.57 322.44 131.82 328.26 119.7 331.55 116.17 335.08 113.34 334.16 117.66 330.06 131.04 324.86 142.94 316.91 144.57 302.17 169.23 303.38" style="opacity:0.1"></polygon><path d="M219.57,382.83c.07.07,7.06-6.64,7.06-6.64s-1-2.51.16-3.18a1.9,1.9,0,0,1,2.67.88,1.72,1.72,0,0,0,.89.89,2,2,0,0,1,1,1,1.86,1.86,0,0,1-.13,1.74c-.67,1.06-1.81.89-3,.35l-6.54,6.55a.41.41,0,0,0-.06.54,1.9,1.9,0,0,1-2.51,2.72,1.92,1.92,0,0,1-.82-1,1.33,1.33,0,0,0-.77-.77,1.89,1.89,0,1,1,2-3.1Z" style="fill:#216045"></path><path d="M219.57,382.83c.07.07,7.06-6.64,7.06-6.64s-1-2.51.16-3.18a1.9,1.9,0,0,1,2.67.88,1.72,1.72,0,0,0,.89.89,2,2,0,0,1,1,1,1.86,1.86,0,0,1-.13,1.74c-.67,1.06-1.81.89-3,.35l-6.54,6.55a.41.41,0,0,0-.06.54,1.9,1.9,0,0,1-2.51,2.72,1.92,1.92,0,0,1-.82-1,1.33,1.33,0,0,0-.77-.77,1.89,1.89,0,1,1,2-3.1Z" style="fill:#fff;opacity:0.9"></path><path d="M99.57,389.57c0,.1,9.25,2.89,9.25,2.89s1.72-2.08,2.85-1.43a1.87,1.87,0,0,1,.92,1.65,2,2,0,0,1-.37,1.11,1.7,1.7,0,0,0-.35,1.21,1.9,1.9,0,0,1-.37,1.34,1.85,1.85,0,0,1-1.57.75c-1.26-.06-1.67-1.15-1.76-2.41l-8.93-2.48a.44.44,0,0,0-.5.22,1.89,1.89,0,1,1-3.16-2,1.34,1.34,0,0,0,.29-1.05,2,2,0,0,1,.24-1.25,1.9,1.9,0,0,1,3.46,1.48Z" style="fill:#216045"></path><path d="M99.57,389.57c0,.1,9.25,2.89,9.25,2.89s1.72-2.08,2.85-1.43a1.87,1.87,0,0,1,.92,1.65,2,2,0,0,1-.37,1.11,1.7,1.7,0,0,0-.35,1.21,1.9,1.9,0,0,1-.37,1.34,1.85,1.85,0,0,1-1.57.75c-1.26-.06-1.67-1.15-1.76-2.41l-8.93-2.48a.44.44,0,0,0-.5.22,1.89,1.89,0,1,1-3.16-2,1.34,1.34,0,0,0,.29-1.05,2,2,0,0,1,.24-1.25,1.9,1.9,0,0,1,3.46,1.48Z" style="fill:#fff;opacity:0.9"></path><path d="M268.23,387.09c.12-.11-10.3-11-10.3-11s-3.91,1.49-4.94-.25a2.9,2.9,0,0,1,0-2.93,3,3,0,0,1,1.36-1.22,2.71,2.71,0,0,0,1.39-1.38,3,3,0,0,1,1.53-1.54,2.91,2.91,0,0,1,2.7.2c1.66,1,1.38,2.82.54,4.6l10.18,10.17a.65.65,0,0,0,.84.09,2.94,2.94,0,1,1,2.73,5.17,2.06,2.06,0,0,0-1.2,1.2,3,3,0,0,1-1.28,1.5,2.9,2.9,0,0,1-2.93,0A3,3,0,0,1,268.23,387.09Z" style="fill:#216045"></path><path d="M268.23,387.09c.12-.11-10.3-11-10.3-11s-3.91,1.49-4.94-.25a2.9,2.9,0,0,1,0-2.93,3,3,0,0,1,1.36-1.22,2.71,2.71,0,0,0,1.39-1.38,3,3,0,0,1,1.53-1.54,2.91,2.91,0,0,1,2.7.2c1.66,1,1.38,2.82.54,4.6l10.18,10.17a.65.65,0,0,0,.84.09,2.94,2.94,0,1,1,2.73,5.17,2.06,2.06,0,0,0-1.2,1.2,3,3,0,0,1-1.28,1.5,2.9,2.9,0,0,1-2.93,0A3,3,0,0,1,268.23,387.09Z" style="fill:#fff;opacity:0.9"></path><path d="M153.37,382.47c0-.13-11.74-.37-11.74-.37s-1.34,3-2.87,2.59a2.29,2.29,0,0,1-1.53-3,2.07,2.07,0,0,0,0-1.53,2.34,2.34,0,0,1,0-1.69,2.25,2.25,0,0,1,1.6-1.38c1.49-.34,2.32.79,2.84,2.23h11.22a.53.53,0,0,0,.52-.42,2.29,2.29,0,0,1,2.86-1.79,2.24,2.24,0,0,1,1.61,1.61,2.33,2.33,0,0,1-.12,1.53,1.62,1.62,0,0,0,0,1.33,2.33,2.33,0,0,1,.12,1.53,2.27,2.27,0,0,1-1.61,1.62A2.3,2.3,0,0,1,153.37,382.47Z" style="fill:#216045"></path><path d="M153.37,382.47c0-.13-11.74-.37-11.74-.37s-1.34,3-2.87,2.59a2.29,2.29,0,0,1-1.53-3,2.07,2.07,0,0,0,0-1.53,2.34,2.34,0,0,1,0-1.69,2.25,2.25,0,0,1,1.6-1.38c1.49-.34,2.32.79,2.84,2.23h11.22a.53.53,0,0,0,.52-.42,2.29,2.29,0,0,1,2.86-1.79,2.24,2.24,0,0,1,1.61,1.61,2.33,2.33,0,0,1-.12,1.53,1.62,1.62,0,0,0,0,1.33,2.33,2.33,0,0,1,.12,1.53,2.27,2.27,0,0,1-1.61,1.62A2.3,2.3,0,0,1,153.37,382.47Z" style="fill:#fff;opacity:0.9"></path><path d="M113.41,356.42c-.08-.1-9.51,6.9-9.51,6.9s.77,3.17-.68,3.8a2.27,2.27,0,0,1-2.27-.3,2.4,2.4,0,0,1-.81-1.16,2.1,2.1,0,0,0-.93-1.22,2.31,2.31,0,0,1-1-1.33,2.25,2.25,0,0,1,.41-2.07c1-1.18,2.32-.79,3.62,0l8.87-6.87a.52.52,0,0,0,.15-.65,2.3,2.3,0,1,1,4.27-1.6,1.62,1.62,0,0,0,.81,1.05,2.29,2.29,0,0,1,.75,3.4A2.3,2.3,0,0,1,113.41,356.42Z" style="fill:#216045"></path><path d="M113.41,356.42c-.08-.1-9.51,6.9-9.51,6.9s.77,3.17-.68,3.8a2.27,2.27,0,0,1-2.27-.3,2.4,2.4,0,0,1-.81-1.16,2.1,2.1,0,0,0-.93-1.22,2.31,2.31,0,0,1-1-1.33,2.25,2.25,0,0,1,.41-2.07c1-1.18,2.32-.79,3.62,0l8.87-6.87a.52.52,0,0,0,.15-.65,2.3,2.3,0,1,1,4.27-1.6,1.62,1.62,0,0,0,.81,1.05,2.29,2.29,0,0,1,.75,3.4A2.3,2.3,0,0,1,113.41,356.42Z" style="fill:#fff;opacity:0.9"></path><path d="M177.72,404.52c.33-1.5,2-1,2-1-.09-.84,1.51-1,1.51-1,.08-1.34,1.58-1,1.58-1,1.5-.75,4.25-6.25,4.84-7.09s2.08,0,2.08,0c-3.17,8.67-12,12.17-12.92,11.42S177.72,404.52,177.72,404.52Z" style="fill:#216045"></path><path d="M168.89,402l1.41,1.5s.75,2.41,1.09,2.5.5-2.59.5-2.59.75,3.5,1.33,3.42.58-3.5.58-3.5.75,2.33,1.25,2.17.34-2.67.34-2.67a21.63,21.63,0,0,0,7.5-4.25,16.41,16.41,0,0,0,3.83-5.25s2.75.58,3.33-3.17.84-4.58-.41-5.33-5.23-.72-6.75,0C177.87,387.2,168.72,397.85,168.89,402Zm10.82-10.59c1.74-1.08,2.75-.52,3.42,0s1.17,1.09,0,2.63a2.42,2.42,0,0,1-3.42.71C179,394.27,178,392.52,179.71,391.43Zm-4.57,6.42c.58.58-.92,1.85-1.5,2.16-.41.21-1.59.51-1.84,0S174.55,397.27,175.14,397.85Z" style="fill:#216045"></path><g style="opacity:0.9"><path d="M177.72,404.52c.33-1.5,2-1,2-1-.09-.84,1.51-1,1.51-1,.08-1.34,1.58-1,1.58-1,1.5-.75,4.25-6.25,4.84-7.09s2.08,0,2.08,0c-3.17,8.67-12,12.17-12.92,11.42S177.72,404.52,177.72,404.52Z" style="fill:#fff"></path><path d="M168.89,402l1.41,1.5s.75,2.41,1.09,2.5.5-2.59.5-2.59.75,3.5,1.33,3.42.58-3.5.58-3.5.75,2.33,1.25,2.17.34-2.67.34-2.67a21.63,21.63,0,0,0,7.5-4.25,16.41,16.41,0,0,0,3.83-5.25s2.75.58,3.33-3.17.84-4.58-.41-5.33-5.23-.72-6.75,0C177.87,387.2,168.72,397.85,168.89,402Zm10.82-10.59c1.74-1.08,2.75-.52,3.42,0s1.17,1.09,0,2.63a2.42,2.42,0,0,1-3.42.71C179,394.27,178,392.52,179.71,391.43Zm-4.57,6.42c.58.58-.92,1.85-1.5,2.16-.41.21-1.59.51-1.84,0S174.55,397.27,175.14,397.85Z" style="fill:#fff"></path></g><path d="M197.15,299.1c1.58,7.74,6.88,29.49,12.32,37.09,3.87,5.41,10.43,7,15.26,7.37a8.33,8.33,0,0,1,7.51-4.75h24.67a8.33,8.33,0,0,1,8.33,8.32v2.72a8.32,8.32,0,0,1-8.33,8.32H232.24a8.32,8.32,0,0,1-7.86-5.6c-6.71-.47-16.21-2.74-22.23-11.14-7.66-10.69-13.57-39.32-13.82-40.53Z" style="fill:#216045"></path><path d="M197.15,299.1c1.58,7.74,6.88,29.49,12.32,37.09,3.87,5.41,10.43,7,15.26,7.37a8.33,8.33,0,0,1,7.51-4.75h24.67a8.33,8.33,0,0,1,8.33,8.32v2.72a8.32,8.32,0,0,1-8.33,8.32H232.24a8.32,8.32,0,0,1-7.86-5.6c-6.71-.47-16.21-2.74-22.23-11.14-7.66-10.69-13.57-39.32-13.82-40.53Z" style="fill:#fff;opacity:0.6000000000000001"></path><path d="M209.47,340.22c3.87,5.41,10.43,7,15.26,7.38a8.32,8.32,0,0,1,7.51-4.76h24.67a7.69,7.69,0,1,1,0,15.33H232.24a8.32,8.32,0,0,1-7.86-5.6c-6.71-.47-16.21-2.74-22.23-11.14s-11.06-28.26-13-36.67l8-1.63C198.73,310.87,204,332.63,209.47,340.22Z" style="opacity:0.2"></path><path d="M206.56,298.41c17.91-.21,61,.88,70.39,16.44s-12-3.18-12-3.18,4.33,16.44-16.22-.28c0,0-1,16.35-16,2.71,0,0-6.88,11-17.84-.68,0,0-12.1,13.65-27.14-.83,0,0-28.15,14.78-32,.58,0,0-27.36,12.18-21.59,1.12,0,0-35.12,13.26-23.06,0,0,0-28.91,13.65-20.49.4,0,0-28.71,15.14-12.92.9s54.76-17.15,73.12-17C164.73,298.7,192.61,298.57,206.56,298.41Z" style="fill:#216045"></path><path d="M195.2,307.75s10.78,0,8.55,8C203.75,315.75,197.24,317.79,195.2,307.75Z" style="fill:#fff;opacity:0.5"></path><path d="M176.56,307s-2.07,10.58-9.49,6.86C167.07,313.86,166.31,307.08,176.56,307Z" style="fill:#fff;opacity:0.7000000000000001"></path><path d="M202.43,306.35s6.26-2.42,6.76,2.72C209.19,309.07,205.87,311.72,202.43,306.35Z" style="fill:#fff;opacity:0.5"></path><path d="M222.72,310.43s6.26-2.42,6.75,2.72C229.47,313.15,226.16,315.8,222.72,310.43Z" style="fill:#fff;opacity:0.7000000000000001"></path><path d="M124.41,311.13s-6.26-2.42-6.76,2.72C117.65,313.85,121,316.5,124.41,311.13Z" style="fill:#fff;opacity:0.7000000000000001"></path><path d="M218.55,310.56s4.42-.11,3.58,3.19C222.13,313.75,219.49,314.65,218.55,310.56Z" style="fill:#fff;opacity:0.8"></path><path d="M144.57,311.13s-6.26-2.42-6.75,2.72C137.82,313.85,141.14,316.5,144.57,311.13Z" style="fill:#fff;opacity:0.7000000000000001"></path><path d="M156.68,311.49s-10.53,1.26-7.41,8.81C149.27,320.3,155.86,321.53,156.68,311.49Z" style="fill:#216045"></path><path d="M77.32,311.78s5.14-4.1,7.12.55C84.44,312.33,82.12,315.78,77.32,311.78Z" style="fill:#216045"></path><path d="M278,307.52s-9.23-7.38-12.79,1C265.24,308.5,269.4,314.71,278,307.52Z" style="fill:#216045"></path><path d="M152.12,308.43s-4.42-.1-3.58,3.19C148.54,311.62,151.18,312.53,152.12,308.43Z" style="fill:#fff;opacity:0.8"></path><path d="M98.83,310.9s-4.41-.11-3.58,3.18C95.25,314.08,97.9,315,98.83,310.9Z" style="fill:#fff;opacity:0.8"></path><path d="M163.13,309.38s-3.92,2-1.61,4.52C161.52,313.9,164.28,313.42,163.13,309.38Z" style="fill:#fff;opacity:0.5"></path><path d="M93.07,313.29s-3.79,2-1.55,4.37C91.52,317.66,94.17,317.19,93.07,313.29Z" style="fill:#fff;opacity:0.5"></path><path d="M114.92,313.67s-4.39.41-3.18,3.59C111.74,317.26,114.47,317.84,114.92,313.67Z" style="fill:#fff;opacity:0.5"></path><path d="M256.72,308.92s4.42-.1,3.58,3.19C260.3,312.11,257.66,313,256.72,308.92Z" style="fill:#fff;opacity:0.8"></path><path d="M257.41,314.13s4.34-.83,4.06,2.56C261.47,316.69,259,318,257.41,314.13Z" style="fill:#fff;opacity:0.5"></path><path d="M269.79,310.56s4.42-.11,3.58,3.19C273.37,313.75,270.73,314.65,269.79,310.56Z" style="fill:#fff;opacity:0.8"></path><path d="M268.74,402s-.78-9.21-8.36-9.21-9.25,16.16,1.23,11.81Z" style="fill:#216045"></path><path d="M268.74,402s-.78-9.21-8.36-9.21-9.25,16.16,1.23,11.81Z" style="fill:#fff;opacity:0.9"></path><path d="M262.27,398.46c1.75,1.57,1.24,4,.19,5.83l-.85.31c-.25.11-.48.19-.71.27a7,7,0,0,0,1.51-3.48c.09-1.06-.51-2.55-1.75-2.64-1-.07-2.11,1.36-1.08,2.08.52.36,0,1.23-.51.86C256.51,399.91,260,396.39,262.27,398.46Z" style="opacity:0.1"></path><path d="M105.34,342.25s-.52-6.13-5.57-6.13-6.16,10.76.82,7.87Z" style="fill:#216045"></path><path d="M105.34,342.25s-.52-6.13-5.57-6.13-6.16,10.76.82,7.87Z" style="fill:#fff;opacity:0.9"></path><path d="M101,339.9c1.16,1,.82,2.62.12,3.88l-.56.21-.48.18a4.58,4.58,0,0,0,1-2.32c.06-.71-.34-1.7-1.17-1.76-.66,0-1.4.91-.72,1.38.35.25,0,.82-.33.58C97.19,340.86,99.48,338.52,101,339.9Z" style="opacity:0.1"></path><path d="M296.57,362.72c7.65,13.28,17.75,29.56,31,49.16,0,0-87.74,13.39-260.88,0,0,0,3.79-23.76,7-48.23a19.84,19.84,0,0,1,2.61.6c4,1.25,24.94,9.94,47.48,7.17s50.27.08,62,1.34,42.46,5.1,64.25,1.24C267.54,370.9,288.85,365,296.57,362.72Z" style="opacity:0.2"></path></g><g id="freepik--Rabbit--inject-7"><path d="M232.2,269.84s1.88,9.2,9.24,8.3c0,0,1.36-4.5,3-1.8,0,0,1.1-1.8,2.7,0s-1.1,4.8-3.2,5.4c0,0-12.3,8.21-16.7-6.2A6,6,0,0,1,232.2,269.84Z" style="fill:#263238"></path><path d="M232.2,269.84s1.88,9.2,9.24,8.3c0,0,1.36-4.5,3-1.8,0,0,1.1-1.8,2.7,0s-1.1,4.8-3.2,5.4c0,0-12.3,8.21-16.7-6.2A6,6,0,0,1,232.2,269.84Z" style="fill:#fff;opacity:0.5"></path><path d="M241.12,251.6s-19.55-13.73-25.91-8.78,19.4,5.56,24,10.32Z" style="fill:#263238"></path><path d="M241.12,251.6s-19.55-13.73-25.91-8.78,19.4,5.56,24,10.32Z" style="fill:#fff;opacity:0.5"></path><path d="M209.24,283.34c3.88-5,14-10.25,18.66-6.63s2.35,14.26-1.4,19.42c12.8-1.8,10.78,4.21,10.78,4.21H213.84a3.62,3.62,0,0,1-1.67-.41,8.81,8.81,0,0,1-1.43-.91C206,295.41,205.36,288.39,209.24,283.34Z" style="fill:#263238"></path><path d="M209.24,283.34c3.88-5,14-10.25,18.66-6.63s2.35,14.26-1.4,19.42c12.8-1.8,10.78,4.21,10.78,4.21H213.84a3.62,3.62,0,0,1-1.67-.41,8.81,8.81,0,0,1-1.43-.91C206,295.41,205.36,288.39,209.24,283.34Z" style="fill:#fff;opacity:0.5"></path><path d="M206.05,274.93c-5.58,7.26-6.81,22.31,1.36,21.78,8.54-.55,17.6,3.55,23.19-3.71s12.31-25.62,5.53-30.83S211.64,267.67,206.05,274.93Z" style="fill:#263238"></path><path d="M206.05,274.93c-5.58,7.26-6.81,22.31,1.36,21.78,8.54-.55,17.6,3.55,23.19-3.71s12.31-25.62,5.53-30.83S211.64,267.67,206.05,274.93Z" style="fill:#fff;opacity:0.7000000000000001"></path><path d="M204.24,293.54s-2.1-5.4-7-1.9a4.17,4.17,0,0,1-2.1-2.9s-.4,4.6,1.2,5.4l-2.1-1.2s.6,4.7,4.1,4.9l-1.9,1.7s5.21,2.34,7.8-2.9Z" style="fill:#263238"></path><path d="M204.24,293.54s-2.1-5.4-7-1.9a4.17,4.17,0,0,1-2.1-2.9s-.4,4.6,1.2,5.4l-2.1-1.2s.6,4.7,4.1,4.9l-1.9,1.7s5.21,2.34,7.8-2.9Z" style="fill:#fff;opacity:0.8"></path><path d="M239.17,269s3.47,7.73,0,6.46c0,0,.34,6.21-3.46,1.14,0,0-3,2-3-2.13,0,0-4.27.06-.54-8.2Z" style="fill:#263238"></path><path d="M239.17,269s3.47,7.73,0,6.46c0,0,.34,6.21-3.46,1.14,0,0-3,2-3-2.13,0,0-4.27.06-.54-8.2Z" style="fill:#fff;opacity:0.9"></path><path d="M245.32,275.29s3-8.37,5.69-7.17-1.38,1.68-1.86,2.13c0,0,2.4.45-.53,1.4,0,0,1.17,1.18-.68,1.46,0,0,.35.24-1.31,1-1.38.63-1,1.73-1,1.73Z" style="fill:#216045"></path><path d="M245.14,275.56s.7-5.59-1.17-5.69.3,1.35.45,1.74c0,0-1.49-.43-.11.94,0,0-1,.34,0,1,0,0-.63.18.14.78a1.14,1.14,0,0,1,.37,1.41Z" style="fill:#216045"></path><path d="M245.39,275s2.58.23,1.06,4.55.27,7-.51,8.39a29,29,0,0,0-1.52-4.24C243.68,282.25,242,274.71,245.39,275Z" style="fill:#216045"></path><path d="M245.39,275s2.58.23,1.06,4.55.27,7-.51,8.39a29,29,0,0,0-1.52-4.24C243.68,282.25,242,274.71,245.39,275Z" style="fill:#fff;opacity:0.4"></path><path d="M246.53,279.26c-1-.19-2.4-.53-2.28-.83s1.64-.19,2.53-.08A8.48,8.48,0,0,1,246.53,279.26Z" style="fill:#216045"></path><path d="M244.77,279.88c.84-.12.12.85-1.23.56,0-.32-.1-.64-.13-1A2.21,2.21,0,0,0,244.77,279.88Z" style="fill:#216045"></path><path d="M244.56,281.6c.21.22.9.09,1.38-.05-.05.32-.08.63-.1.93C244.19,282.73,244.24,281.28,244.56,281.6Z" style="fill:#216045"></path><path d="M221.43,297.35l-2.23-2.15,1.08-11.13v-6.85l.66-1s6.06,2.07,6.26,8.27a21.31,21.31,0,0,1-1.73,9.87,10.16,10.16,0,0,0,3.22.59A12,12,0,0,1,221.43,297.35Z" style="opacity:0.1"></path><path d="M204.2,283.34c3.88-5,14-10.25,18.66-6.63s2.35,14.26-1.4,19.42c12.8-1.8,9.18,4.21,9.18,4.21H208.8a3.62,3.62,0,0,1-1.67-.41,8.81,8.81,0,0,1-1.43-.91C201,295.41,200.33,288.39,204.2,283.34Z" style="fill:#263238"></path><path d="M204.2,283.34c3.88-5,14-10.25,18.66-6.63s2.35,14.26-1.4,19.42c12.8-1.8,9.18,4.21,9.18,4.21H208.8a3.62,3.62,0,0,1-1.67-.41,8.81,8.81,0,0,1-1.43-.91C201,295.41,200.33,288.39,204.2,283.34Z" style="fill:#fff;opacity:0.7000000000000001"></path><path d="M227.94,275.5l2.7,2.06,3.16,2.6s1.29.7,2.66,1.62c-.51,1.38-1.08,2.74-1.67,4-10.08-1.22-9.25-10.31-9.25-10.31Z" style="opacity:0.1"></path><path d="M229.74,269.84s1.87,9.2,9.24,8.3c0,0,1.36-4.5,3-1.8,0,0,1.1-1.8,2.7,0s-1.1,4.8-3.2,5.4c0,0-12.3,8.21-16.7-6.2A6,6,0,0,1,229.74,269.84Z" style="fill:#263238"></path><path d="M229.74,269.84s1.87,9.2,9.24,8.3c0,0,1.36-4.5,3-1.8,0,0,1.1-1.8,2.7,0s-1.1,4.8-3.2,5.4c0,0-12.3,8.21-16.7-6.2A6,6,0,0,1,229.74,269.84Z" style="fill:#fff;opacity:0.7000000000000001"></path><path d="M250.91,268.64c1.64-1.64-.13-4-1.14-6.53-1.3-3.17-2.37-6.48-4.46-8.57A9.55,9.55,0,0,0,231.8,267C235.53,270.77,247.18,272.37,250.91,268.64Z" style="fill:#263238"></path><path d="M250.91,268.64c1.64-1.64-.13-4-1.14-6.53-1.3-3.17-2.37-6.48-4.46-8.57A9.55,9.55,0,0,0,231.8,267C235.53,270.77,247.18,272.37,250.91,268.64Z" style="fill:#fff;opacity:0.7000000000000001"></path><path d="M248,267.1c-1.36-1.5-3.71-3.18-5.74-2a.3.3,0,0,1-.3-.52c2.28-1.32,4.91.38,6.46,2.1.26.28-.16.71-.42.42Z" style="fill:#263238"></path><path d="M247.28,268.3a4.15,4.15,0,0,0-5.29-.2c-.32.21-.62-.31-.3-.52a4.71,4.71,0,0,1,6,.3c.28.27-.14.69-.42.42Z" style="fill:#263238"></path><g style="opacity:0.30000000000000004"><path d="M248,267.1c-1.36-1.5-3.71-3.18-5.74-2a.3.3,0,0,1-.3-.52c2.28-1.32,4.91.38,6.46,2.1.26.28-.16.71-.42.42Z" style="fill:#fff"></path><path d="M247.28,268.3a4.15,4.15,0,0,0-5.29-.2c-.32.21-.62-.31-.3-.52a4.71,4.71,0,0,1,6,.3c.28.27-.14.69-.42.42Z" style="fill:#fff"></path></g><path d="M250.39,267.8a4,4,0,0,1,4.81,1.44c.24.3-.29.6-.52.3a3.47,3.47,0,0,0-4-1.22c-.35.15-.65-.37-.3-.52Z" style="fill:#263238"></path><path d="M249.24,268.8c1.43-.06,3.47.28,3.89,1.88a.3.3,0,0,1-.58.16c-.34-1.3-2.17-1.49-3.31-1.44-.38,0-.38-.58,0-.6Z" style="fill:#263238"></path><g style="opacity:0.30000000000000004"><path d="M250.39,267.8a4,4,0,0,1,4.81,1.44c.24.3-.29.6-.52.3a3.47,3.47,0,0,0-4-1.22c-.35.15-.65-.37-.3-.52Z" style="fill:#fff"></path><path d="M249.24,268.8c1.43-.06,3.47.28,3.89,1.88a.3.3,0,0,1-.58.16c-.34-1.3-2.17-1.49-3.31-1.44-.38,0-.38-.58,0-.6Z" style="fill:#fff"></path></g><path d="M249.24,269.57s-2.47,2.61-2.27,1.74c0,0-.93.1.27-2.62Z" style="fill:#263238"></path><path d="M249.24,269.57s-2.47,2.61-2.27,1.74c0,0-.93.1.27-2.62Z" style="fill:#fff;opacity:0.9"></path><path d="M237.4,251.64s-24.26-2.5-28.06,4.6,20.8-4.9,26.9-2.4Z" style="fill:#263238"></path><path d="M237.4,251.64s-24.26-2.5-28.06,4.6,20.8-4.9,26.9-2.4Z" style="fill:#fff;opacity:0.7000000000000001"></path><path d="M230.17,253.92c-4.85.91-11.08,3-15.53,4-2.47.12-4-.23-2.9-1.54C214,253.6,224.46,253.66,230.17,253.92Z" style="opacity:0.2"></path><path d="M245.12,259.51c.09.64-.17,1.21-.59,1.27s-.84-.4-.93-1,.16-1.21.59-1.27S245,258.87,245.12,259.51Z" style="fill:#263238"></path><path d="M245.82,257.64a.29.29,0,0,1-.35.08,3.64,3.64,0,0,0-2.87.47.3.3,0,0,1-.42-.09.31.31,0,0,1,.09-.42,4.34,4.34,0,0,1,3.42-.53.31.31,0,0,1,.18.4A.26.26,0,0,1,245.82,257.64Z" style="fill:#263238"></path><path d="M251.19,268.3a2.2,2.2,0,0,1-.28.34,6.09,6.09,0,0,1-2.37,1.4c-1.38-.49-3.23-1.57-1.65-3.55,2.35-2.95,3.4.75,3.4.75Z" style="fill:#263238"></path><path d="M251.19,268.3a2.2,2.2,0,0,1-.28.34,6.09,6.09,0,0,1-2.37,1.4c-1.38-.49-3.23-1.57-1.65-3.55,2.35-2.95,3.4.75,3.4.75Z" style="fill:#fff;opacity:0.8"></path><path d="M250.46,269.09c.66.11,1.55-1.6,1.4-2.25s-.87-1.71-1.45-1.39C249.58,265.89,249.54,268.94,250.46,269.09Z" style="fill:#263238"></path></g><g id="freepik--Fishes--inject-7"><path d="M199,402.14s-4.21-4.33-4.79-4,2.57,3.67,2.54,4.51-3.64,2.83-3.49,3.41,5.68-2.19,5.68-2.19l.65-.63Z" style="fill:#216045"></path><path d="M219.84,399.65s-3.05-4.85-3.51-4.52-1.64,4.35-1.64,4.35l-1,0s-3-3.08-3.68-2.7-.51,1.58-.51,1.58a26,26,0,0,0-8.05,2.83l.69,1.64-.53,2a48,48,0,0,0,6.72,2.85s-.46,1.7.23,1.78,4.66-2.48,4.66-2.48l6.37-5.85Z" style="fill:#216045"></path><path d="M219.93,407.15s-4.11,5-4.3,3.92a7.09,7.09,0,0,1,.07-2.34l2.1-1.88Z" style="fill:#216045"></path><g style="opacity:0.4"><path d="M199,402.14s-4.21-4.33-4.79-4,2.57,3.67,2.54,4.51-3.64,2.83-3.49,3.41,5.68-2.19,5.68-2.19l.65-.63Z" style="fill:#fff"></path><path d="M219.84,399.65s-3.05-4.85-3.51-4.52-1.64,4.35-1.64,4.35l-1,0s-3-3.08-3.68-2.7-.51,1.58-.51,1.58a26,26,0,0,0-8.05,2.83l.69,1.64-.53,2a48,48,0,0,0,6.72,2.85s-.46,1.7.23,1.78,4.66-2.48,4.66-2.48l6.37-5.85Z" style="fill:#fff"></path><path d="M219.93,407.15s-4.11,5-4.3,3.92a7.09,7.09,0,0,1,.07-2.34l2.1-1.88Z" style="fill:#fff"></path></g><path d="M229.05,403.13s-9.92-9-27.52-.91a3.46,3.46,0,0,1-2.49-.08,1.16,1.16,0,0,0-.06,1.71,6.62,6.62,0,0,1,2.75.09s5.46,3.45,15.58,3.78,12.5-4,12.5-4l-1.49.67Z" style="fill:#216045"></path><path d="M229.05,403.13s-9.92-9-27.52-.91a3.46,3.46,0,0,1-2.49-.08,1.16,1.16,0,0,0-.06,1.71,6.62,6.62,0,0,1,2.75.09s5.46,3.45,15.58,3.78,12.5-4,12.5-4l-1.49.67Z" style="fill:#fff;opacity:0.7000000000000001"></path><path d="M199,402.14a3.46,3.46,0,0,0,2.49.08c17.6-8.09,27.52.91,27.52.91l-.48.84-29.94-1A1.27,1.27,0,0,1,199,402.14Z" style="fill:#216045"></path><path d="M220.26,404.08l.24,1.82s-4.35.49-4.8-.16-3.85-.19-4.17-.9S220.26,404.08,220.26,404.08Z" style="fill:#216045"></path><path d="M223.9,401.33s-3.62,2.28-.17,5.37c0,0-2.72-1-2.48-3S223.9,401.33,223.9,401.33Z" style="fill:#216045"></path><g style="opacity:0.4"><path d="M220.26,404.08l.24,1.82s-4.35.49-4.8-.16-3.85-.19-4.17-.9S220.26,404.08,220.26,404.08Z" style="fill:#fff"></path><path d="M223.9,401.33s-3.62,2.28-.17,5.37c0,0-2.72-1-2.48-3S223.9,401.33,223.9,401.33Z" style="fill:#fff"></path></g><path d="M224.86,403.11c-.05.33.09.63.31.66s.43-.21.48-.54-.08-.63-.3-.67S224.91,402.77,224.86,403.11Z" style="fill:#263238"></path><path d="M224.49,402.13a.17.17,0,0,0,.19.05,1.84,1.84,0,0,1,1.49.24.15.15,0,0,0,.22-.05.16.16,0,0,0,0-.22,2.29,2.29,0,0,0-1.79-.27.16.16,0,0,0-.09.2A.08.08,0,0,0,224.49,402.13Z" style="fill:#263238"></path><path d="M50.7,394.29s-3.36-3.46-3.83-3.21,2.06,2.93,2,3.6S46,397,46.11,397.41s4.55-1.75,4.55-1.75l.52-.51Z" style="fill:#216045"></path><path d="M67.34,392.3s-2.43-3.88-2.81-3.62-1.3,3.48-1.3,3.48l-.83,0S60,389.68,59.45,390s-.4,1.27-.4,1.27a21,21,0,0,0-6.44,2.26l.55,1.31-.42,1.62a38.44,38.44,0,0,0,5.37,2.29s-.36,1.36.18,1.42,3.73-2,3.73-2l5.1-4.69Z" style="fill:#216045"></path><path d="M67.42,398.3s-3.29,4-3.45,3.14a5.86,5.86,0,0,1,.07-1.88l1.68-1.5Z" style="fill:#216045"></path><g style="opacity:0.4"><path d="M50.7,394.29s-3.36-3.46-3.83-3.21,2.06,2.93,2,3.6S46,397,46.11,397.41s4.55-1.75,4.55-1.75l.52-.51Z" style="fill:#fff"></path><path d="M67.34,392.3s-2.43-3.88-2.81-3.62-1.3,3.48-1.3,3.48l-.83,0S60,389.68,59.45,390s-.4,1.27-.4,1.27a21,21,0,0,0-6.44,2.26l.55,1.31-.42,1.62a38.44,38.44,0,0,0,5.37,2.29s-.36,1.36.18,1.42,3.73-2,3.73-2l5.1-4.69Z" style="fill:#fff"></path><path d="M67.42,398.3s-3.29,4-3.45,3.14a5.86,5.86,0,0,1,.07-1.88l1.68-1.5Z" style="fill:#fff"></path></g><path d="M74.71,395.09s-7.93-7.2-22-.73a2.76,2.76,0,0,1-2-.07.93.93,0,0,0,0,1.37,5.21,5.21,0,0,1,2.19.08s4.38,2.75,12.47,3,10-3.2,10-3.2l-1.19.54Z" style="fill:#216045"></path><path d="M74.71,395.09s-7.93-7.2-22-.73a2.76,2.76,0,0,1-2-.07.93.93,0,0,0,0,1.37,5.21,5.21,0,0,1,2.19.08s4.38,2.75,12.47,3,10-3.2,10-3.2l-1.19.54Z" style="fill:#fff;opacity:0.7000000000000001"></path><path d="M50.7,394.29a2.76,2.76,0,0,0,2,.07c14.09-6.47,22,.73,22,.73l-.38.67L50.38,395A1,1,0,0,1,50.7,394.29Z" style="fill:#216045"></path><path d="M67.68,395.85l.2,1.45s-3.49.39-3.85-.13-3.08-.15-3.34-.72S67.68,395.85,67.68,395.85Z" style="fill:#216045"></path><path d="M70.6,393.64s-2.9,1.83-.15,4.3c0,0-2.17-.8-2-2.4S70.6,393.64,70.6,393.64Z" style="fill:#216045"></path><g style="opacity:0.4"><path d="M67.68,395.85l.2,1.45s-3.49.39-3.85-.13-3.08-.15-3.34-.72S67.68,395.85,67.68,395.85Z" style="fill:#fff"></path><path d="M70.6,393.64s-2.9,1.83-.15,4.3c0,0-2.17-.8-2-2.4S70.6,393.64,70.6,393.64Z" style="fill:#fff"></path></g><path d="M71.36,395.07c0,.26.07.5.25.53s.34-.17.38-.44-.06-.5-.24-.53S71.4,394.8,71.36,395.07Z" style="fill:#263238"></path><path d="M71.07,394.29a.12.12,0,0,0,.14,0,1.49,1.49,0,0,1,1.2.2.13.13,0,0,0,.18,0,.14.14,0,0,0,0-.18,1.88,1.88,0,0,0-1.43-.22.12.12,0,0,0-.07.17Z" style="fill:#263238"></path><path d="M289,389.77s-4.21-4.33-4.79-4,2.57,3.66,2.54,4.5-3.64,2.84-3.49,3.41,5.68-2.18,5.68-2.18l.65-.64Z" style="fill:#216045"></path><path d="M309.8,387.28s-3-4.85-3.51-4.52-1.64,4.35-1.64,4.35l-1,0s-3.05-3.08-3.69-2.7-.51,1.59-.51,1.59a26.19,26.19,0,0,0-8.05,2.82l.69,1.65-.53,2a46.8,46.8,0,0,0,6.72,2.85s-.46,1.71.23,1.79,4.66-2.48,4.66-2.48l6.37-5.86Z" style="fill:#216045"></path><path d="M309.89,394.78s-4.11,5-4.3,3.92a7.12,7.12,0,0,1,.07-2.34l2.11-1.88Z" style="fill:#216045"></path><g style="opacity:0.4"><path d="M289,389.77s-4.21-4.33-4.79-4,2.57,3.66,2.54,4.5-3.64,2.84-3.49,3.41,5.68-2.18,5.68-2.18l.65-.64Z" style="fill:#fff"></path><path d="M309.8,387.28s-3-4.85-3.51-4.52-1.64,4.35-1.64,4.35l-1,0s-3.05-3.08-3.69-2.7-.51,1.59-.51,1.59a26.19,26.19,0,0,0-8.05,2.82l.69,1.65-.53,2a46.8,46.8,0,0,0,6.72,2.85s-.46,1.71.23,1.79,4.66-2.48,4.66-2.48l6.37-5.86Z" style="fill:#fff"></path><path d="M309.89,394.78s-4.11,5-4.3,3.92a7.12,7.12,0,0,1,.07-2.34l2.11-1.88Z" style="fill:#fff"></path></g><path d="M319,390.76s-9.91-9-27.52-.91a3.46,3.46,0,0,1-2.49-.08,1.17,1.17,0,0,0-.06,1.72,6.44,6.44,0,0,1,2.75.09s5.46,3.44,15.58,3.78,12.5-4,12.5-4l-1.49.68Z" style="fill:#216045"></path><path d="M319,390.76s-9.91-9-27.52-.91a3.46,3.46,0,0,1-2.49-.08,1.17,1.17,0,0,0-.06,1.72,6.44,6.44,0,0,1,2.75.09s5.46,3.44,15.58,3.78,12.5-4,12.5-4l-1.49.68Z" style="fill:#fff;opacity:0.7000000000000001"></path><path d="M289,389.77a3.46,3.46,0,0,0,2.49.08c17.61-8.08,27.52.91,27.52.91l-.48.85-29.94-1A1.27,1.27,0,0,1,289,389.77Z" style="fill:#216045"></path><path d="M310.23,391.72l.24,1.81s-4.36.49-4.81-.16-3.85-.19-4.17-.9S310.23,391.72,310.23,391.72Z" style="fill:#216045"></path><path d="M313.86,389s-3.62,2.29-.17,5.38c0,0-2.72-1-2.48-3S313.86,389,313.86,389Z" style="fill:#216045"></path><g style="opacity:0.4"><path d="M310.23,391.72l.24,1.81s-4.36.49-4.81-.16-3.85-.19-4.17-.9S310.23,391.72,310.23,391.72Z" style="fill:#fff"></path><path d="M313.86,389s-3.62,2.29-.17,5.38c0,0-2.72-1-2.48-3S313.86,389,313.86,389Z" style="fill:#fff"></path></g><path d="M314.82,390.74c-.05.34.09.63.31.67s.43-.22.48-.55-.08-.63-.3-.66S314.87,390.41,314.82,390.74Z" style="fill:#263238"></path><path d="M314.45,389.77a.17.17,0,0,0,.19,0,1.91,1.91,0,0,1,1.49.24.16.16,0,0,0,.22,0,.16.16,0,0,0,0-.22,2.27,2.27,0,0,0-1.79-.28.17.17,0,0,0-.09.21S314.44,389.75,314.45,389.77Z" style="fill:#263238"></path><path d="M415,391.17s-4.21-4.32-4.79-4,2.57,3.66,2.54,4.5-3.64,2.84-3.49,3.42,5.68-2.19,5.68-2.19l.65-.64Z" style="fill:#216045"></path><path d="M435.78,388.69s-3-4.85-3.51-4.53-1.64,4.36-1.64,4.36l-1,0s-3.05-3.08-3.69-2.7-.51,1.59-.51,1.59a26.19,26.19,0,0,0-8.05,2.82l.69,1.65-.53,2a47.74,47.74,0,0,0,6.72,2.86s-.46,1.7.23,1.78,4.66-2.48,4.66-2.48l6.37-5.86Z" style="fill:#216045"></path><path d="M435.87,396.19s-4.11,4.95-4.3,3.92a7.17,7.17,0,0,1,.07-2.35l2.1-1.87Z" style="fill:#216045"></path><g style="opacity:0.4"><path d="M415,391.17s-4.21-4.32-4.79-4,2.57,3.66,2.54,4.5-3.64,2.84-3.49,3.42,5.68-2.19,5.68-2.19l.65-.64Z" style="fill:#fff"></path><path d="M435.78,388.69s-3-4.85-3.51-4.53-1.64,4.36-1.64,4.36l-1,0s-3.05-3.08-3.69-2.7-.51,1.59-.51,1.59a26.19,26.19,0,0,0-8.05,2.82l.69,1.65-.53,2a47.74,47.74,0,0,0,6.72,2.86s-.46,1.7.23,1.78,4.66-2.48,4.66-2.48l6.37-5.86Z" style="fill:#fff"></path><path d="M435.87,396.19s-4.11,4.95-4.3,3.92a7.17,7.17,0,0,1,.07-2.35l2.1-1.87Z" style="fill:#fff"></path></g><path d="M445,392.17s-9.91-9-27.52-.91a3.49,3.49,0,0,1-2.49-.09,1.18,1.18,0,0,0-.06,1.72,6.44,6.44,0,0,1,2.75.09s5.46,3.44,15.58,3.78,12.5-4,12.5-4l-1.49.68Z" style="fill:#216045"></path><path d="M445,392.17s-9.91-9-27.52-.91a3.49,3.49,0,0,1-2.49-.09,1.18,1.18,0,0,0-.06,1.72,6.44,6.44,0,0,1,2.75.09s5.46,3.44,15.58,3.78,12.5-4,12.5-4l-1.49.68Z" style="fill:#fff;opacity:0.7000000000000001"></path><path d="M415,391.17a3.49,3.49,0,0,0,2.49.09c17.61-8.09,27.52.91,27.52.91l-.48.84-29.94-1A1.31,1.31,0,0,1,415,391.17Z" style="fill:#216045"></path><path d="M436.2,393.12l.25,1.81s-4.36.5-4.81-.16-3.85-.18-4.17-.9S436.2,393.12,436.2,393.12Z" style="fill:#216045"></path><path d="M439.84,390.37s-3.62,2.28-.17,5.37c0,0-2.72-1-2.48-3S439.84,390.37,439.84,390.37Z" style="fill:#216045"></path><g style="opacity:0.4"><path d="M436.2,393.12l.25,1.81s-4.36.5-4.81-.16-3.85-.18-4.17-.9S436.2,393.12,436.2,393.12Z" style="fill:#fff"></path><path d="M439.84,390.37s-3.62,2.28-.17,5.37c0,0-2.72-1-2.48-3S439.84,390.37,439.84,390.37Z" style="fill:#fff"></path></g><path d="M440.8,392.14c-.05.34.09.63.31.67s.43-.21.48-.55-.08-.63-.3-.66S440.85,391.81,440.8,392.14Z" style="fill:#263238"></path><path d="M440.43,391.17a.17.17,0,0,0,.19,0,1.86,1.86,0,0,1,1.49.25.17.17,0,0,0,.22,0,.16.16,0,0,0,0-.22,2.27,2.27,0,0,0-1.79-.28.17.17,0,0,0-.09.21A.08.08,0,0,0,440.43,391.17Z" style="fill:#263238"></path></g><g id="freepik--Heron--inject-7"><path d="M397,259.7s3.46-3.36,3.21-3.83-2.93,2.06-3.6,2-2.27-2.92-2.73-2.8,1.74,4.55,1.74,4.55l.51.52Z" style="fill:#216045"></path><path d="M399,276.34s3.88-2.43,3.61-2.81-3.48-1.3-3.48-1.3l0-.82s2.46-2.44,2.16-3-1.27-.4-1.27-.4a21,21,0,0,0-2.26-6.44l-1.31.55-1.62-.42a38.44,38.44,0,0,0-2.29,5.37s-1.36-.36-1.42.18,2,3.73,2,3.73l4.68,5.1Z" style="fill:#216045"></path><path d="M393,276.42s-4-3.29-3.14-3.45a5.86,5.86,0,0,1,1.88.07l1.5,1.68Z" style="fill:#216045"></path><g style="opacity:0.4"><path d="M397,259.7s3.46-3.36,3.21-3.83-2.93,2.06-3.6,2-2.27-2.92-2.73-2.8,1.74,4.55,1.74,4.55l.51.52Z" style="fill:#fff"></path><path d="M399,276.34s3.88-2.43,3.61-2.81-3.48-1.3-3.48-1.3l0-.82s2.46-2.44,2.16-3-1.27-.4-1.27-.4a21,21,0,0,0-2.26-6.44l-1.31.55-1.62-.42a38.44,38.44,0,0,0-2.29,5.37s-1.36-.36-1.42.18,2,3.73,2,3.73l4.68,5.1Z" style="fill:#fff"></path><path d="M393,276.42s-4-3.29-3.14-3.45a5.86,5.86,0,0,1,1.88.07l1.5,1.68Z" style="fill:#fff"></path></g><path d="M396.21,283.71s7.2-7.93.73-22a2.76,2.76,0,0,1,.07-2,.94.94,0,0,0-1.38,0,5.12,5.12,0,0,1-.07,2.19s-2.75,4.38-3,12.47,3.2,10,3.2,10l-.54-1.19Z" style="fill:#216045"></path><path d="M396.21,283.71s7.2-7.93.73-22a2.76,2.76,0,0,1,.07-2,.94.94,0,0,0-1.38,0,5.12,5.12,0,0,1-.07,2.19s-2.75,4.38-3,12.47,3.2,10,3.2,10l-.54-1.19Z" style="fill:#fff;opacity:0.7000000000000001"></path><path d="M397,259.7a2.76,2.76,0,0,0-.07,2c6.47,14.09-.73,22-.73,22l-.67-.38.79-23.95A1,1,0,0,1,397,259.7Z" style="fill:#216045"></path><path d="M395.45,276.68l-1.45.2s-.4-3.49.13-3.85.15-3.08.72-3.34S395.45,276.68,395.45,276.68Z" style="fill:#216045"></path><path d="M397.65,279.6s-1.82-2.9-4.3-.15c0,0,.81-2.17,2.4-2S397.65,279.6,397.65,279.6Z" style="fill:#216045"></path><g style="opacity:0.4"><path d="M395.45,276.68l-1.45.2s-.4-3.49.13-3.85.15-3.08.72-3.34S395.45,276.68,395.45,276.68Z" style="fill:#fff"></path><path d="M397.65,279.6s-1.82-2.9-4.3-.15c0,0,.81-2.17,2.4-2S397.65,279.6,397.65,279.6Z" style="fill:#fff"></path></g><path d="M396.23,280.36c-.27,0-.5.07-.53.25s.17.35.44.38.5-.06.53-.24S396.5,280.4,396.23,280.36Z" style="fill:#263238"></path><path d="M397,280.07a.11.11,0,0,0,0,.14,1.58,1.58,0,0,1-.2,1.2.13.13,0,0,0,0,.18.13.13,0,0,0,.17,0,1.77,1.77,0,0,0,.22-1.43.12.12,0,0,0-.16-.07Z" style="fill:#263238"></path><path d="M336.87,359s.26,5.71-1.43,10l16,20.52a24.42,24.42,0,0,1,1.64,2.34c1.69,2.71,4.63,5,5.11,9.21a40.35,40.35,0,0,0-5-6.83s2.52,6.44,1,9.95c0,0-.27-8.95-3.9-12.73-1-1.06-3.12-1.94-5.84-.77,0,0-.78-2.21,5.19-1.17,0,0-16.36-18.31-16.36-20s1.95-5.71,1.3-9.74Z" style="fill:#263238"></path><path d="M328.41,359.59s-3.15,7.72-3,10.32c.11,2.2,3,29.7,3.9,37.79.13,1.19-.73,1.86-1.91,2-1.45.17-3.12,0-3.22,1.63h19.58s-3.54-2.08-5.36-2.08-6.75,1.69-7-1-3.86-29.59-2.21-39c.49-2.78,3.7-10.26,3.7-10.26Z" style="fill:#263238"></path><path d="M325.14,361.25s12.11,3.68,22.67-3.42,15-22.27,15-22.27l-7.69,3.31-12.82,10-8.83,5.58-8.74,6.06Z" style="fill:#263238"></path><path d="M325.14,361.25s12.11,3.68,22.67-3.42,15-22.27,15-22.27l-7.69,3.31-12.82,10-8.83,5.58-8.74,6.06Z" style="fill:#fff;opacity:0.5"></path><path d="M317.69,364.84a112.55,112.55,0,0,1,17.74-4.76c8.83-1.47,22.93-6.75,26.45-20.86s4.29-18-3.5-15.15-8.66,11.17-8.66,11.17l-12.29,15.15-11.6,6.49s-6.76,2.6-6.93,3.55S317.69,364.84,317.69,364.84Z" style="fill:#263238"></path><path d="M358.12,319.66s12.12-4.68,10.82-18.36-12.56-15.23-6.32-28.82c0,0,4.85-16.63,22.16-4l.43,4.5s-4.85,1.74-15.49,2.69a6.13,6.13,0,0,0-.87,7.44c2.42,4.33,11.86,16.88,7.62,27.88s-7.1,15.84-7.53,21a6.74,6.74,0,0,1-.52-5,22.29,22.29,0,0,0-1.56,6.45c-.09,2.9-1.21,11.29-1.21,11.29l-.7-10.2s-.63,10.12-2.17,13.07l.53-11s-1.65,10.16-3.46,11.72l.95-12.75-3.46-13.13Z" style="fill:#263238"></path><path d="M358.12,319.66s12.12-4.68,10.82-18.36-12.56-15.23-6.32-28.82c0,0,4.85-16.63,22.16-4l.43,4.5s-4.85,1.74-15.49,2.69a6.13,6.13,0,0,0-.87,7.44c2.42,4.33,11.86,16.88,7.62,27.88s-7.1,15.84-7.53,21a6.74,6.74,0,0,1-.52-5,22.29,22.29,0,0,0-1.56,6.45c-.09,2.9-1.21,11.29-1.21,11.29l-.7-10.2s-.63,10.12-2.17,13.07l.53-11s-1.65,10.16-3.46,11.72l.95-12.75-3.46-13.13Z" style="fill:#fff;opacity:0.5"></path><path d="M368.94,324.59l.69-5.19-4.16,10.82v-7L362.78,332l-.9-6.06a49.32,49.32,0,0,1-1.15,9.39l.07.28-.95,12.75c1.82-1.56,3.46-11.72,3.46-11.72l-.53,11c1.54-2.95,2.17-13.07,2.17-13.07l.7,10.2s1.12-8.39,1.21-11.29a22.29,22.29,0,0,1,1.56-6.45,6.74,6.74,0,0,0,.52,5c.34-4.11,2.21-8,5.08-14.94Z" style="fill:#fff;opacity:0.5"></path><path d="M384.78,268.49c-17.31-12.64-22.16,4-22.16,4h5.45l1.65,3.2c10.64-.95,15.49-2.69,15.49-2.69Z" style="fill:#fff;opacity:0.4"></path><path d="M355.66,275.74a6.47,6.47,0,0,0-.4.72S355.4,276.19,355.66,275.74Z" style="fill:#263238"></path><path d="M374.55,263.84a35.68,35.68,0,0,0-4.66,2c-7.41-.62-12.76,7.42-14.23,9.89,1.56-2.38,5.14-4.39,5.14-4.39-3.38,4.76-3.46,12-3.46,12,5.88-21.9,14-14.37,16.57-16.19s6.65-1.28,6.81-1.26A17.69,17.69,0,0,0,374.55,263.84Z" style="fill:#263238"></path><polygon points="384.78 268.49 381.66 271 385.21 273 407.29 272.04 384.78 268.49" style="fill:#263238"></polygon><polygon points="384.78 268.49 381.66 271 385.21 273 407.29 272.04 384.78 268.49" style="fill:#fff;opacity:0.30000000000000004"></polygon><path d="M377.79,269.18c-.1.7.18,1.31.64,1.38s.91-.44,1-1.13-.17-1.31-.63-1.38S377.9,268.49,377.79,269.18Z" style="fill:#263238"></path><path d="M377,267.16a.34.34,0,0,0,.38.09,3.89,3.89,0,0,1,3.1.5.33.33,0,0,0,.37-.55c-.09,0-2-1.26-3.71-.57a.34.34,0,0,0-.19.43Z" style="fill:#263238"></path><path d="M358.12,319.66s-47.79-10.13-54.28,48.56c0,0,1.81,4.94,8,1.39s11.77-8.57,21.9-12.21S372,348.83,358.12,319.66Z" style="fill:#263238"></path><path d="M358.12,319.66s-47.79-10.13-54.28,48.56c0,0,1.81,4.94,8,1.39s11.77-8.57,21.9-12.21S372,348.83,358.12,319.66Z" style="fill:#fff;opacity:0.30000000000000004"></path><g style="opacity:0.30000000000000004"><path d="M318.73,340.69s-7.62,5.28-6.32,12.9C312.41,353.59,313.36,346,318.73,340.69Z" style="fill:#fff"></path><path d="M338.3,331.1s-7.62,5.28-6.32,12.9C332,344,332.93,336.38,338.3,331.1Z" style="fill:#fff"></path><path d="M324.16,336.59s-7.62,5.28-6.32,12.9C317.84,349.49,318.79,341.87,324.16,336.59Z" style="fill:#fff"></path><path d="M344.77,327s-7.62,5.28-6.32,12.9C338.45,339.91,339.4,332.29,344.77,327Z" style="fill:#fff"></path><path d="M350.85,326.43s-8.12,4.47-7.61,12.18C343.24,338.61,345,331.13,350.85,326.43Z" style="fill:#fff"></path><path d="M327.39,339.91s-7.62,5.28-6.32,12.9C321.07,352.81,322,345.19,327.39,339.91Z" style="fill:#fff"></path><path d="M333.55,331.1s-6.81,6.29-4.47,13.65C329.08,344.75,329,337.07,333.55,331.1Z" style="fill:#fff"></path></g><path d="M353.05,391.86a24.42,24.42,0,0,0-1.64-2.34l-16-20.52a24.08,24.08,0,0,0,1.37-7.07,25.67,25.67,0,0,0,11-4.1,29.84,29.84,0,0,0,6.83-6.52c.31-.29.61-.6.91-.9a165.68,165.68,0,0,0-18.12,0c-4.51.43-20.23.43-29.91.39a83.92,83.92,0,0,0-3.68,17.45s1.81,4.94,8,1.39c3-1.72,5.84-3.79,9.14-5.87,1.73-.56,4-1.26,6.62-1.94-.92,2.49-2.25,6.4-2.17,8.11.11,2.2,3,29.7,3.9,37.79.13,1.19-.73,1.86-1.91,2-1.45.17-3.12,0-3.22,1.63h19.58s-3.54-2.08-5.36-2.08-6.75,1.69-7-1-3.86-29.59-2.21-39a48.33,48.33,0,0,1,2.39-7.08c1,0,2,0,3.09,0-.16,3.15-1.41,6-1.41,7.37,0,1.69,16.36,20,16.36,20-6-1-5.19,1.17-5.19,1.17,2.72-1.17,4.82-.29,5.84.77,3.63,3.78,3.9,12.73,3.9,12.73,1.55-3.51-1-9.95-1-9.95a40.35,40.35,0,0,1,5,6.83C357.68,396.88,354.74,394.57,353.05,391.86Z" style="opacity:0.30000000000000004"></path></g><g id="freepik--Sun--inject-7"><circle cx="268.74" cy="110" r="25.99" style="fill:#216045"></circle><circle cx="268.74" cy="110" r="25.99" style="fill:#fff;opacity:0.8"></circle></g><g id="freepik--Birds--inject-7"><path d="M312.32,162.41s-3.2-4.67-6.52-5.36-9.67-4.61-9.67-4.61-.11,4,2.3,5.87,7.47,2.28,8.45,5.37Z" style="fill:#216045"></path><path d="M312.32,162.41s-3.2-4.67-6.52-5.36-9.67-4.61-9.67-4.61-.11,4,2.3,5.87,7.47,2.28,8.45,5.37Z" style="fill:#fff;opacity:0.6000000000000001"></path><path d="M298.05,155c-.21-.56.52-.68,1.45-.63-1.9-1-3.37-1.92-3.37-1.92s-.11,4,2.3,5.87a18,18,0,0,0,4.08,1.94C298.14,156.83,298.58,156.33,298.05,155Z" style="fill:#263238"></path><path d="M303,163.58a2.42,2.42,0,0,1,3-1.58,6.25,6.25,0,0,0,4-.36s2.44-5.11,5.61-6.31,8.84-6.05,8.84-6.05.73,3.93-1.37,6.15-7,3.41-7.51,6.62l9.25,2.35s-3.65.81-3.82,1.73-3.73.69-3.73.69l-2.92-.74s-1.44,2.09-7.75-.8C306.61,165.28,302.2,166,303,163.58Z" style="fill:#216045"></path><path d="M303,163.58a2.42,2.42,0,0,1,3-1.58,6.25,6.25,0,0,0,4-.36s2.44-5.11,5.61-6.31,8.84-6.05,8.84-6.05.73,3.93-1.37,6.15-7,3.41-7.51,6.62l9.25,2.35s-3.65.81-3.82,1.73-3.73.69-3.73.69l-2.92-.74s-1.44,2.09-7.75-.8C306.61,165.28,302.2,166,303,163.58Z" style="fill:#fff;opacity:0.8"></path><path d="M303,163.58s-2.46,1.1-2.4,1.44,2.82,0,2.82,0S304.25,164.07,303,163.58Z" style="fill:#216045"></path><path d="M323.09,155.43c2.1-2.22,1.37-6.15,1.37-6.15s-1,.83-2.32,1.88a10,10,0,0,1-1.46,6.05A11.08,11.08,0,0,0,323.09,155.43Z" style="fill:#263238"></path><path d="M319.54,165.52c0,.42-1.37.91-2.48,1.25l.22,0s3.56.22,3.73-.69,3.82-1.73,3.82-1.73l-3.34-.85C320.4,164.21,319.58,165.11,319.54,165.52Z" style="fill:#263238"></path><path d="M304.59,163.25c0,.27.16.48.33.48s.32-.23.31-.5-.16-.49-.34-.48S304.58,163,304.59,163.25Z" style="fill:#263238"></path><path d="M304.16,162.54a.14.14,0,0,0,.15,0,1.49,1.49,0,0,1,1.21,0,.13.13,0,0,0,.16-.07.13.13,0,0,0-.06-.17,1.81,1.81,0,0,0-1.45.05.12.12,0,0,0,0,.17S304.14,162.53,304.16,162.54Z" style="fill:#263238"></path><path d="M361.83,183.76s0-8.88-3.63-12.74-8.38-14.58-8.38-14.58-3.72,5.06-2.27,9.63,7.62,9.61,6.12,14.48Z" style="fill:#216045"></path><path d="M361.83,183.76s0-8.88-3.63-12.74-8.38-14.58-8.38-14.58-3.72,5.06-2.27,9.63,7.62,9.61,6.12,14.48Z" style="fill:#fff;opacity:0.6000000000000001"></path><path d="M349.15,181.17s1.46-3,5.13-1.57a9.75,9.75,0,0,0,6.27.58s5.24-7.18,10.47-8.12,15.38-6.8,15.38-6.8,0,6.28-3.87,9.1-11.82,3.25-13.5,8.06l13.61,6.28s-5.87.21-6.39,1.57-6,0-6,0l-4.29-2s-2.83,2.83-11.72-3.45C354.28,184.83,347.26,184.62,349.15,181.17Z" style="fill:#216045"></path><path d="M349.15,181.17s1.46-3,5.13-1.57a9.75,9.75,0,0,0,6.27.58s5.24-7.18,10.47-8.12,15.38-6.8,15.38-6.8,0,6.28-3.87,9.1-11.82,3.25-13.5,8.06l13.61,6.28s-5.87.21-6.39,1.57-6,0-6,0l-4.29-2s-2.83,2.83-11.72-3.45C354.28,184.83,347.26,184.62,349.15,181.17Z" style="fill:#fff;opacity:0.8"></path><path d="M349.15,181.17s-4.11,1-4.11,1.54,4.36.75,4.36.75S351,182.29,349.15,181.17Z" style="fill:#216045"></path><path d="M382.53,174.36c3.87-2.82,3.87-9.1,3.87-9.1s-1.73,1-4.12,2.23a15.63,15.63,0,0,1-4,8.92A17.53,17.53,0,0,0,382.53,174.36Z" style="fill:#263238"></path><path d="M350,161.44c.22-.91,1.27-.41,2.42.49-1.54-3-2.63-5.49-2.63-5.49s-3.72,5.06-2.27,9.63c.63,2,2.14,4,3.53,6.15C348.5,163.89,349.51,163.64,350,161.44Z" style="fill:#263238"></path><path d="M374.16,188.91c-.18.64-2.39,1-4.19,1.22l.32.14s5.44,1.36,6,0,6.39-1.57,6.39-1.57l-4.91-2.26C375.85,187.14,374.33,188.3,374.16,188.91Z" style="fill:#263238"></path><path d="M351.72,181.12c-.05.42.11.79.39.83s.55-.26.61-.68-.11-.79-.38-.84S351.79,180.7,351.72,181.12Z" style="fill:#263238"></path><path d="M351.27,179.9a.21.21,0,0,0,.23,0,2.35,2.35,0,0,1,1.87.31.2.2,0,0,0,.22-.34,2.86,2.86,0,0,0-2.24-.35.21.21,0,0,0-.11.26A.09.09,0,0,0,351.27,179.9Z" style="fill:#263238"></path></g><g id="freepik--Mouse--inject-7"><path d="M255.41,343.37c.5.88.8,2.07.33,2.34s-1.26-.22-1.76-1.09-.8-2.07-.33-2.34S254.9,342.5,255.41,343.37Z" style="fill:#263238"></path><path d="M255.41,343.37c.5.88.8,2.07.33,2.34s-1.26-.22-1.76-1.09-.8-2.07-.33-2.34S254.9,342.5,255.41,343.37Z" style="fill:#fff;opacity:0.1"></path><path d="M259.18,351.56h.92s-.23,1.63-.46,1.33C259.64,352.89,259.12,353.71,259.18,351.56Z" style="fill:#263238"></path><path d="M259.18,351.56h.92s-.23,1.63-.46,1.33C259.64,352.89,259.12,353.71,259.18,351.56Z" style="fill:#fff;opacity:0.7000000000000001"></path><path d="M238.26,354.19s.09,1.19-5,1.1-4.48,1.93,1.4,2.15,8.73.18,9-.44c0,0-2.54.13-4.83,0s-7.33-.26-7.33-.75,6.15.49,7.47-1.09Z" style="fill:#263238"></path><path d="M238.26,354.19s.09,1.19-5,1.1-4.48,1.93,1.4,2.15,8.73.18,9-.44c0,0-2.54.13-4.83,0s-7.33-.26-7.33-.75,6.15.49,7.47-1.09Z" style="fill:#fff;opacity:0.1"></path><path d="M237.78,350.9c0-3.71,5-6.45,10.27-6.45s9.48,1.95,9.48,5.66-4.24,5.93-9.48,5.93h-7.73a2.55,2.55,0,0,1-2.54-2.55Z" style="fill:#263238"></path><path d="M256.3,352.15a6.79,6.79,0,0,1-1.78,2.21c-1,.69,1.15,2,1.15,2s2.27-.62,2.53,0a1,1,0,0,1,.76.66h-3.88s-1.85-.79-2.11-1.71.83-2.63.79-3.26Z" style="fill:#263238"></path><path d="M256.83,352.52l-1.94.13S250,355.34,245,355s-6.29.46-6.31.47a2.53,2.53,0,0,0,1.65.62h7.73C252,356,255.42,354.76,256.83,352.52Z" style="fill:#fff;opacity:0.30000000000000004"></path><path d="M262,350.06c-.26,1.67-5,3.12-7.61,3.12a4.21,4.21,0,1,1,0-8.35C257,344.83,262.17,348.77,262,350.06Z" style="fill:#263238"></path><path d="M262,350.06c.05-.31-.21-.77-.67-1.29-1.18,0-2,.12-2,1.47,0,1.15.71,1.18,1.69,1.05A2,2,0,0,0,262,350.06Z" style="fill:#fff;opacity:0.1"></path><path d="M261.16,349.24a3.28,3.28,0,0,1,2.94-1.93.1.1,0,0,0,0-.2,3.46,3.46,0,0,0-3.11,2c-.05.11.12.22.17.1Z" style="fill:#263238"></path><path d="M261.39,349.59a4.18,4.18,0,0,1,3.21-1.4.1.1,0,0,0,0-.2,4.38,4.38,0,0,0-3.38,1.5c-.08.1.09.2.17.1Z" style="fill:#263238"></path><g style="opacity:0.30000000000000004"><path d="M259.67,350.1a3.48,3.48,0,0,0-3.71-.16c-.11.06,0,.24.1.17a3.3,3.3,0,0,1,3.51.16c.11.08.21-.1.1-.17Z" style="fill:#fff"></path></g><g style="opacity:0.30000000000000004"><path d="M259.63,350.51A4.41,4.41,0,0,0,256,351a.1.1,0,1,0,.1.17,4.2,4.2,0,0,1,3.49-.42c.12.05.17-.14.05-.19Z" style="fill:#fff"></path></g><path d="M255.6,348.3c0,.36.09.69.33.72s.48-.23.53-.59-.09-.69-.33-.73S255.65,347.93,255.6,348.3Z" style="fill:#263238"></path><path d="M255.2,347.24a.18.18,0,0,0,.2,0,2,2,0,0,1,1.63.27.17.17,0,1,0,.19-.29,2.46,2.46,0,0,0-2-.31.19.19,0,0,0-.1.23S255.18,347.22,255.2,347.24Z" style="fill:#263238"></path><g style="opacity:0.6000000000000001"><path d="M255.6,348.3c0,.36.09.69.33.72s.48-.23.53-.59-.09-.69-.33-.73S255.65,347.93,255.6,348.3Z"></path><path d="M255.2,347.24a.18.18,0,0,0,.2,0,2,2,0,0,1,1.63.27.17.17,0,1,0,.19-.29,2.46,2.46,0,0,0-2-.31.19.19,0,0,0-.1.23S255.18,347.22,255.2,347.24Z"></path></g><path d="M250,352.15a5.57,5.57,0,0,1-1.52,2.73c-1,.69,1.94,1.45,1.94,1.45s2.27-.62,2.53,0a1,1,0,0,1,.76.66h-3.89s-2.89-.79-3.16-1.71.83-2.63.8-3.26Z" style="fill:#263238"></path><path d="M243.66,350.72s2.37,1,.5,5.45c0,0,3.35-.46,3.25.72h-.92a5.37,5.37,0,0,1-2.2,0c-1.45-.23-4.31.46-4-.85a5.89,5.89,0,0,0-.61-3.26Z" style="fill:#263238"></path><path d="M252.56,347a2.8,2.8,0,1,1-.91-3.34A2.49,2.49,0,0,1,252.56,347Z" style="fill:#263238"></path><path d="M252.56,347a2.8,2.8,0,1,1-.91-3.34A2.49,2.49,0,0,1,252.56,347Z" style="fill:#fff;opacity:0.1"></path><path d="M249.1,347a3.14,3.14,0,0,0,1.77.65,1.72,1.72,0,0,0,.76-.59,2.05,2.05,0,0,0-.4-2.91c-1-.75-2.59-.93-3.23-.07l-.05.07A2.69,2.69,0,0,0,249.1,347Z" style="fill:#fff;opacity:0.2"></path></g><g id="freepik--Water--inject-7"><path d="M444.83,352.09a1.24,1.24,0,0,1-1.43,1.23c-8-1.25-47.44-7.06-72.54-3.39-28,4.09-40.22,5.35-50.17,3.62-9.34-1.63-20.89,0-26.71-1.67a1.48,1.48,0,0,1-1.06-1.43h0a1.49,1.49,0,0,1,1.69-1.48,47.64,47.64,0,0,0,8.74.33,101.21,101.21,0,0,1,23.13.78c11.49,1.58,34.82-3.83,49.42-4.56,22.73-1.14,61.06,4.34,67.87,5.35a1.24,1.24,0,0,1,1.06,1.22Z" style="fill:#216045"></path><path d="M444.83,352.09a1.24,1.24,0,0,1-1.43,1.23c-8-1.25-47.44-7.06-72.54-3.39-28,4.09-40.22,5.35-50.17,3.62-9.34-1.63-20.89,0-26.71-1.67a1.48,1.48,0,0,1-1.06-1.43h0a1.49,1.49,0,0,1,1.69-1.48,47.64,47.64,0,0,0,8.74.33,101.21,101.21,0,0,1,23.13.78c11.49,1.58,34.82-3.83,49.42-4.56,22.73-1.14,61.06,4.34,67.87,5.35a1.24,1.24,0,0,1,1.06,1.22Z" style="fill:#fff;opacity:0.6000000000000001"></path><path d="M62.82,351.69c-3.8-1-12.16-2.54-20,.06a2.17,2.17,0,0,0-1.5,2.05h0a2.14,2.14,0,0,0,2.76,2.06c3.29-1,9.38-2,17.5.31a2.34,2.34,0,0,0,3-1.79h0A2.32,2.32,0,0,0,62.82,351.69Z" style="fill:#216045"></path><path d="M62.82,351.69c-3.8-1-12.16-2.54-20,.06a2.17,2.17,0,0,0-1.5,2.05h0a2.14,2.14,0,0,0,2.76,2.06c3.29-1,9.38-2,17.5.31a2.34,2.34,0,0,0,3-1.79h0A2.32,2.32,0,0,0,62.82,351.69Z" style="fill:#fff;opacity:0.6000000000000001"></path><path d="M250.13,384.29a1.2,1.2,0,0,0-1.26-.81c-6.51.69-44.47,4.48-59.82.84-16.21-3.85-34.93-5.62-45.28-5.39a1.22,1.22,0,0,0-1.19,1.15h0a1.19,1.19,0,0,0,1.23,1.27c3.94-.09,17.19.17,43.29,5.69,23.56,5,55.19.18,62.15-1a1.21,1.21,0,0,0,.94-1.58Z" style="fill:#216045"></path><path d="M250.13,384.29a1.2,1.2,0,0,0-1.26-.81c-6.51.69-44.47,4.48-59.82.84-16.21-3.85-34.93-5.62-45.28-5.39a1.22,1.22,0,0,0-1.19,1.15h0a1.19,1.19,0,0,0,1.23,1.27c3.94-.09,17.19.17,43.29,5.69,23.56,5,55.19.18,62.15-1a1.21,1.21,0,0,0,.94-1.58Z" style="fill:#fff;opacity:0.6000000000000001"></path><path d="M450.54,362.58a2.35,2.35,0,0,0-2-2.32c-10-1.7-56.1-8.84-88-1.51-36,8.25-59.76-3.55-75,2.51-31,12.34-83.67,12.35-111.84,7.3S106.06,373,83.8,366C63.38,359.58,52,360,44.1,360.49A2.18,2.18,0,0,0,42,362.67h0a2.17,2.17,0,0,0,2.22,2.18c4.84-.1,17.5-1.47,37.34,5.91,25.91,9.64,40.28-2.07,92.11,5.09s72.94,2.38,99.63-3.48,16.2-10.76,60.2-4.81c43.61,5.89,16-16.56,114.31-2.65a2.36,2.36,0,0,0,2.69-2.33Z" style="fill:#216045"></path><path d="M450.54,362.58a2.35,2.35,0,0,0-2-2.32c-10-1.7-56.1-8.84-88-1.51-36,8.25-59.76-3.55-75,2.51-31,12.34-83.67,12.35-111.84,7.3S106.06,373,83.8,366C63.38,359.58,52,360,44.1,360.49A2.18,2.18,0,0,0,42,362.67h0a2.17,2.17,0,0,0,2.22,2.18c4.84-.1,17.5-1.47,37.34,5.91,25.91,9.64,40.28-2.07,92.11,5.09s72.94,2.38,99.63-3.48,16.2-10.76,60.2-4.81c43.61,5.89,16-16.56,114.31-2.65a2.36,2.36,0,0,0,2.69-2.33Z" style="fill:#fff;opacity:0.5"></path><path d="M455.09,371.49a1.81,1.81,0,0,0-1.62-1.8c-9.75-1.07-60.66-6.35-70.6-1.13-11,5.77-18,7.8-29.66,7.29-11.08-.49-36.23-6.06-45.33-3.56a1.79,1.79,0,0,0-1.31,1.73h0a1.78,1.78,0,0,0,1.87,1.78c5.16-.28,20.63-.58,42.43,3.64,27,5.23,30-8,45.36-8.57,13.38-.47,48.31,1.84,56.92,2.44a1.82,1.82,0,0,0,1.94-1.82Z" style="fill:#216045"></path><path d="M455.09,371.49a1.81,1.81,0,0,0-1.62-1.8c-9.75-1.07-60.66-6.35-70.6-1.13-11,5.77-18,7.8-29.66,7.29-11.08-.49-36.23-6.06-45.33-3.56a1.79,1.79,0,0,0-1.31,1.73h0a1.78,1.78,0,0,0,1.87,1.78c5.16-.28,20.63-.58,42.43,3.64,27,5.23,30-8,45.36-8.57,13.38-.47,48.31,1.84,56.92,2.44a1.82,1.82,0,0,0,1.94-1.82Z" style="fill:#fff;opacity:0.6000000000000001"></path></g><g id="freepik--Plants--inject-7"><path d="M406.35,413h-4.44c-.78-11.84-5.2-65.62-23.12-97.21C378.79,315.79,405.8,348.33,406.35,413Z" style="fill:#216045"></path><path d="M406.35,413h-4.44c-.78-11.84-5.2-65.62-23.12-97.21C378.79,315.79,405.8,348.33,406.35,413Z" style="fill:#fff;opacity:0.4"></path><path d="M398.7,358.14A202.91,202.91,0,0,1,406.34,413h-4.43A367.17,367.17,0,0,0,394,358.14Z" style="opacity:0.1"></path><path d="M407.08,413c5.56-130.06-20.24-123.79-20.24-123.79,29.44-15.89,26.39,103.4,25.66,123.79Z" style="fill:#216045"></path><path d="M407.08,413c5.56-130.06-20.24-123.79-20.24-123.79,29.44-15.89,26.39,103.4,25.66,123.79Z" style="fill:#fff;opacity:0.8"></path><path d="M412.56,363.41c.76,22.07.2,42.25-.06,49.59h-5.42c.83-19.42.95-35.77.58-49.59Z" style="opacity:0.1"></path><path d="M413.78,413c-5.54-97.95,27.52-146.92,27.52-146.92C421.51,320.59,420.17,397.13,420.11,413Z" style="fill:#216045"></path><path d="M413.78,413c-5.54-97.95,27.52-146.92,27.52-146.92C421.51,320.59,420.17,397.13,420.11,413Z" style="fill:#fff;opacity:0.5"></path><path d="M420.11,413h-6.33a370.47,370.47,0,0,1-.12-40.76h8.08C420.35,391.7,420.13,406.87,420.11,413Z" style="opacity:0.1"></path><path d="M422.93,413c.71-64.27,27.55-96.62,27.55-96.62-17.63,31.09-22.2,83.67-23.08,96.62Z" style="fill:#216045"></path><path d="M422.93,413c.71-64.27,27.55-96.62,27.55-96.62-17.63,31.09-22.2,83.67-23.08,96.62Z" style="fill:#fff;opacity:0.6000000000000001"></path><path d="M427.4,413h-4.47a212.27,212.27,0,0,1,3.77-38.12h5.35A383,383,0,0,0,427.4,413Z" style="opacity:0.1"></path><path d="M417.2,353.9s34-17.13,31.1,12.78S355.36,355.57,417.2,353.9Z" style="fill:#216045"></path><path d="M417.2,353.9s34-17.13,31.1,12.78S355.36,355.57,417.2,353.9Z" style="opacity:0.1"></path><path d="M400.55,358.25a56.58,56.58,0,0,1,22.89-1.45.41.41,0,0,1-.14-.12,24.74,24.74,0,0,0-4.73-1.23c-.61-.1-.35-1,.25-.93a25.5,25.5,0,0,1,4.84,1.26c3.61-3.32,9-4.61,13.7-4.69a.48.48,0,0,1,0,1c-4.34.07-9.26,1.2-12.68,4.12.81.34,1.61.71,2.39,1.12a50.24,50.24,0,0,1,18.71-1.36c.61.06.61,1,0,1a50.06,50.06,0,0,0-17.5,1.08c.58.34,1.14.7,1.69,1.07,5.15,1.5,11.31,3.56,15,7.61.41.46-.27,1.14-.68.68-3-3.29-7.66-5.21-12-6.6A32.69,32.69,0,0,1,441,372.18c.26.55-.57,1-.83.48A31.77,31.77,0,0,0,432,361.77a23.81,23.81,0,0,1-1,11.79c-.21.57-1.14.32-.93-.26a23,23,0,0,0,.75-12.46c-.41-.32-.84-.63-1.27-.93h0a.44.44,0,0,1-.23-.15l-.81-.54a26.79,26.79,0,0,0-14.3,10.93c-.33.53-1.16.05-.83-.48a27.71,27.71,0,0,1,14.07-11.08l-.5-.28h-.19a56.51,56.51,0,0,0-25.93.88A.48.48,0,0,1,400.55,358.25Z" style="opacity:0.2"></path><path d="M392.56,352.91s-24.68-12.42-22.54,9.27S437.41,354.13,392.56,352.91Z" style="fill:#216045"></path><path d="M392.56,352.91s-24.68-12.42-22.54,9.27S437.41,354.13,392.56,352.91Z" style="fill:#fff;opacity:0.1"></path><path d="M404.64,356.07A40.91,40.91,0,0,0,388,355a.28.28,0,0,0,.1-.09,18.4,18.4,0,0,1,3.43-.89c.44-.07.26-.74-.18-.67a18.1,18.1,0,0,0-3.51.91c-2.61-2.41-6.5-3.35-9.93-3.4a.35.35,0,0,0,0,.69c3.15.05,6.72.88,9.19,3-.59.25-1.16.52-1.73.81a36.76,36.76,0,0,0-13.57-1c-.44.05-.44.75,0,.7a36.16,36.16,0,0,1,12.69.79c-.42.24-.82.5-1.22.77-3.74,1.09-8.2,2.58-10.86,5.52-.3.33.19.83.49.49,2.16-2.38,5.55-3.77,8.73-4.78a23.57,23.57,0,0,0-6.38,8.3c-.18.4.42.75.6.35a23.19,23.19,0,0,1,6-7.9,17.22,17.22,0,0,0,.71,8.55c.15.42.82.24.67-.19a16.7,16.7,0,0,1-.55-9c.31-.23.61-.46.93-.68h0a.34.34,0,0,0,.17-.11l.58-.39a19.47,19.47,0,0,1,10.37,7.93c.24.38.84,0,.6-.35a20.11,20.11,0,0,0-10.2-8l.36-.21a.19.19,0,0,0,.13,0h0a41.08,41.08,0,0,1,18.81.64C404.89,356.87,405.07,356.2,404.64,356.07Z" style="opacity:0.2"></path><path d="M64.83,357.27S41.54,345.54,43.56,366,107.15,358.41,64.83,357.27Z" style="fill:#216045"></path><path d="M64.83,357.27S41.54,345.54,43.56,366,107.15,358.41,64.83,357.27Z" style="opacity:0.1"></path><path d="M76.23,360.24a38.79,38.79,0,0,0-15.66-1,.34.34,0,0,0,.09-.08,18,18,0,0,1,3.24-.85c.42-.06.24-.69-.18-.63a17.9,17.9,0,0,0-3.31.86c-2.46-2.27-6.13-3.16-9.37-3.21a.33.33,0,0,0,0,.66c3,.05,6.34.82,8.68,2.82-.56.23-1.1.49-1.64.77a34.33,34.33,0,0,0-12.8-.94c-.42.05-.42.7,0,.66a34.21,34.21,0,0,1,12,.74c-.39.23-.78.48-1.15.73-3.53,1-7.74,2.44-10.25,5.21-.28.31.18.78.46.46,2-2.25,5.24-3.56,8.24-4.51a22.26,22.26,0,0,0-6,7.83c-.18.38.39.72.56.33a21.85,21.85,0,0,1,5.64-7.45,16.36,16.36,0,0,0,.67,8.07c.14.39.78.22.63-.18a15.73,15.73,0,0,1-.51-8.52c.28-.22.58-.44.87-.64h0a.31.31,0,0,0,.16-.11l.55-.37a18.36,18.36,0,0,1,9.79,7.49c.22.36.79,0,.56-.33a19,19,0,0,0-9.62-7.59l.34-.19a.24.24,0,0,0,.12,0h0a38.53,38.53,0,0,1,17.74.6A.33.33,0,0,0,76.23,360.24Z" style="opacity:0.2"></path><path d="M81.69,356.59s16.89-8.5,15.43,6.34S51,357.42,81.69,356.59Z" style="fill:#216045"></path><path d="M81.69,356.59s16.89-8.5,15.43,6.34S51,357.42,81.69,356.59Z" style="fill:#fff;opacity:0.1"></path><path d="M73.43,358.75A28.05,28.05,0,0,1,84.79,358l-.07-.06a11.77,11.77,0,0,0-2.35-.61c-.3-.05-.17-.51.13-.46a12.48,12.48,0,0,1,2.4.63,10.34,10.34,0,0,1,6.79-2.33.24.24,0,0,1,0,.47,10.13,10.13,0,0,0-6.29,2.05c.41.17.8.35,1.19.55a24.84,24.84,0,0,1,9.28-.67c.3,0,.31.51,0,.47a24.88,24.88,0,0,0-8.68.54c.29.17.56.35.84.53,2.55.74,5.61,1.77,7.43,3.78.2.22-.13.56-.34.33a13.57,13.57,0,0,0-6-3.27,16.21,16.21,0,0,1,4.36,5.68c.13.28-.28.52-.41.24A15.76,15.76,0,0,0,89,360.5a11.74,11.74,0,0,1-.48,5.85c-.11.28-.57.16-.46-.13a11.49,11.49,0,0,0,.37-6.18l-.63-.47h0a.24.24,0,0,1-.12-.07l-.4-.27a13.3,13.3,0,0,0-7.09,5.43c-.16.26-.58,0-.41-.24a13.71,13.71,0,0,1,7-5.5l-.25-.14h-.09a28.26,28.26,0,0,0-12.87.44A.24.24,0,0,1,73.43,358.75Z" style="opacity:0.2"></path></g></svg>